<?xml version="1.0" standalone="no"?>
 <!DOCTYPE svg PUBLIC "-//W3C//DTD SVG 1.1//EN" 
 "http://www.w3.org/Graphics/SVG/1.1/DTD/svg11.dtd"> 
<svg
  xmlns:svg="http://www.w3.org/2000/svg"
  xmlns="http://www.w3.org/2000/svg"
  xmlns:xlink="http://www.w3.org/1999/xlink"
  version="1.1"
  width="29.700220cm" height="21.000720cm" viewBox="0 0 116930 82680">
<title>SVG Picture created as mostek-F_Cu.svg date 2020/10/10 14:37:33 </title>
  <desc>Picture generated by PCBNEW </desc>
<g style="fill:#000000; fill-opacity:1;stroke:#000000; stroke-opacity:1;
stroke-linecap:round; stroke-linejoin:round;"
 transform="translate(0 0) scale(1 1)">
</g>
<g style="fill:#000000; fill-opacity:0.0; 
stroke:#000000; stroke-width:-0.000393701; stroke-opacity:1; 
stroke-linecap:round; stroke-linejoin:round;">
<g >
</g>
<g style="fill:#000000; fill-opacity:0.0; 
stroke:#000000; stroke-width:750; stroke-opacity:1; 
stroke-linecap:round; stroke-linejoin:round;">
<path d="M10781 15200
L10818 15200
" />
<path d="M10781 16200
L10818 16200
" />
</g>
<g style="fill:#000000; fill-opacity:0.0; 
stroke:#000000; stroke-width:0; stroke-opacity:1; 
stroke-linecap:round; stroke-linejoin:round;">
</g>
<g style="fill:#000000; fill-opacity:1.0; 
stroke:#000000; stroke-width:0; stroke-opacity:1; 
stroke-linecap:round; stroke-linejoin:round;">
<path style="fill:#000000; fill-opacity:1.0; 
stroke:#000000; stroke-width:0; stroke-opacity:1; 
stroke-linecap:round; stroke-linejoin:round;fill-rule:evenodd;"
d="M 11193.7,17575
10406.3,17575
10406.3,16825
11193.7,16825
Z" /> 
</g>
<g >
</g>
<g style="fill:#000000; fill-opacity:1.0; 
stroke:#000000; stroke-width:0; stroke-opacity:1; 
stroke-linecap:round; stroke-linejoin:round;">
</g>
<g style="fill:#000000; fill-opacity:1.0; 
stroke:#000000; stroke-width:669.291; stroke-opacity:1; 
stroke-linecap:round; stroke-linejoin:round;">
</g>
<g style="fill:#000000; fill-opacity:0.0; 
stroke:#000000; stroke-width:669.291; stroke-opacity:1; 
stroke-linecap:round; stroke-linejoin:round;">
<path d="M20400 8200
L20400 8200
" />
</g>
<g style="fill:#000000; fill-opacity:0.0; 
stroke:#000000; stroke-width:0; stroke-opacity:1; 
stroke-linecap:round; stroke-linejoin:round;">
</g>
<g style="fill:#000000; fill-opacity:1.0; 
stroke:#000000; stroke-width:0; stroke-opacity:1; 
stroke-linecap:round; stroke-linejoin:round;">
<path style="fill:#000000; fill-opacity:1.0; 
stroke:#000000; stroke-width:0; stroke-opacity:1; 
stroke-linecap:round; stroke-linejoin:round;fill-rule:evenodd;"
d="M 21734.6,8534.65
21065.4,8534.65
21065.4,7865.35
21734.6,7865.35
Z" /> 
</g>
<g >
</g>
<g style="fill:#000000; fill-opacity:1.0; 
stroke:#000000; stroke-width:0; stroke-opacity:1; 
stroke-linecap:round; stroke-linejoin:round;">
</g>
<g style="fill:#000000; fill-opacity:1.0; 
stroke:#000000; stroke-width:669.291; stroke-opacity:1; 
stroke-linecap:round; stroke-linejoin:round;">
</g>
<g style="fill:#000000; fill-opacity:0.0; 
stroke:#000000; stroke-width:669.291; stroke-opacity:1; 
stroke-linecap:round; stroke-linejoin:round;">
<path d="M12000 8200
L12000 8200
" />
</g>
<g style="fill:#000000; fill-opacity:0.0; 
stroke:#000000; stroke-width:0; stroke-opacity:1; 
stroke-linecap:round; stroke-linejoin:round;">
</g>
<g style="fill:#000000; fill-opacity:1.0; 
stroke:#000000; stroke-width:0; stroke-opacity:1; 
stroke-linecap:round; stroke-linejoin:round;">
<path style="fill:#000000; fill-opacity:1.0; 
stroke:#000000; stroke-width:0; stroke-opacity:1; 
stroke-linecap:round; stroke-linejoin:round;fill-rule:evenodd;"
d="M 13334.6,8534.65
12665.4,8534.65
12665.4,7865.35
13334.6,7865.35
Z" /> 
</g>
<g >
</g>
<g style="fill:#000000; fill-opacity:1.0; 
stroke:#000000; stroke-width:0; stroke-opacity:1; 
stroke-linecap:round; stroke-linejoin:round;">
</g>
<g style="fill:#000000; fill-opacity:1.0; 
stroke:#000000; stroke-width:669.291; stroke-opacity:1; 
stroke-linecap:round; stroke-linejoin:round;">
</g>
<g style="fill:#000000; fill-opacity:0.0; 
stroke:#000000; stroke-width:669.291; stroke-opacity:1; 
stroke-linecap:round; stroke-linejoin:round;">
<path d="M14200 25400
L14200 25400
" />
<path d="M15200 25400
L15200 25400
" />
<path d="M16200 25400
L16200 25400
" />
<path d="M17200 25400
L17200 25400
" />
<path d="M18200 25400
L18200 25400
" />
<path d="M19200 25400
L19200 25400
" />
</g>
<g style="fill:#000000; fill-opacity:0.0; 
stroke:#000000; stroke-width:0; stroke-opacity:1; 
stroke-linecap:round; stroke-linejoin:round;">
</g>
<g style="fill:#000000; fill-opacity:1.0; 
stroke:#000000; stroke-width:0; stroke-opacity:1; 
stroke-linecap:round; stroke-linejoin:round;">
<path style="fill:#000000; fill-opacity:1.0; 
stroke:#000000; stroke-width:0; stroke-opacity:1; 
stroke-linecap:round; stroke-linejoin:round;fill-rule:evenodd;"
d="M 20534.6,25734.6
19865.4,25734.6
19865.4,25065.4
20534.6,25065.4
Z" /> 
</g>
<g >
</g>
<g style="fill:#000000; fill-opacity:1.0; 
stroke:#000000; stroke-width:0; stroke-opacity:1; 
stroke-linecap:round; stroke-linejoin:round;">
</g>
<g style="fill:#000000; fill-opacity:1.0; 
stroke:#000000; stroke-width:629.921; stroke-opacity:1; 
stroke-linecap:round; stroke-linejoin:round;">
</g>
<g style="fill:#000000; fill-opacity:0.0; 
stroke:#000000; stroke-width:629.921; stroke-opacity:1; 
stroke-linecap:round; stroke-linejoin:round;">
<path d="M14200 23200
L14200 23200
" />
<path d="M21200 20200
L21200 20200
" />
<path d="M15200 23200
L15200 23200
" />
<path d="M20200 20200
L20200 20200
" />
<path d="M16200 23200
L16200 23200
" />
<path d="M19200 20200
L19200 20200
" />
<path d="M17200 23200
L17200 23200
" />
<path d="M18200 20200
L18200 20200
" />
<path d="M18200 23200
L18200 23200
" />
<path d="M17200 20200
L17200 20200
" />
<path d="M19200 23200
L19200 23200
" />
<path d="M16200 20200
L16200 20200
" />
<path d="M20200 23200
L20200 23200
" />
<path d="M15200 20200
L15200 20200
" />
<path d="M21200 23200
L21200 23200
" />
</g>
<g style="fill:#000000; fill-opacity:0.0; 
stroke:#000000; stroke-width:0; stroke-opacity:1; 
stroke-linecap:round; stroke-linejoin:round;">
</g>
<g style="fill:#000000; fill-opacity:1.0; 
stroke:#000000; stroke-width:0; stroke-opacity:1; 
stroke-linecap:round; stroke-linejoin:round;">
<path style="fill:#000000; fill-opacity:1.0; 
stroke:#000000; stroke-width:0; stroke-opacity:1; 
stroke-linecap:round; stroke-linejoin:round;fill-rule:evenodd;"
d="M 13885,19885
14515,19885
14515,20515
13885,20515
Z" /> 
</g>
<g >
</g>
<g style="fill:#000000; fill-opacity:1.0; 
stroke:#000000; stroke-width:0; stroke-opacity:1; 
stroke-linecap:round; stroke-linejoin:round;">
<path style="fill:#000000; fill-opacity:1.0; 
stroke:#000000; stroke-width:0; stroke-opacity:1; 
stroke-linecap:round; stroke-linejoin:round;fill-rule:evenodd;"
d="M 24055.7,13291.2
24065.3,13292.6
24074.6,13295
24083.7,13298.2
24092.5,13302.4
24100.7,13307.3
24108.5,13313.1
24115.7,13319.6
24122.1,13326.7
24127.9,13334.5
24132.9,13342.8
24137,13351.5
24140.2,13360.6
24142.6,13370
24144,13379.5
24144.5,13389.2
24144.5,13753.3
24144,13763
24142.6,13772.5
24140.2,13781.9
24137,13791
24132.9,13799.7
24127.9,13808
24122.1,13815.8
24115.7,13822.9
24108.5,13829.4
24100.7,13835.2
24092.5,13840.1
24083.7,13844.3
24074.6,13847.5
24065.3,13849.9
24055.7,13851.3
24046.1,13851.8
23553.9,13851.8
23544.3,13851.3
23534.7,13849.9
23525.4,13847.5
23516.3,13844.3
23507.5,13840.1
23499.3,13835.2
23491.5,13829.4
23484.3,13822.9
23477.9,13815.8
23472.1,13808
23467.1,13799.7
23463,13791
23459.8,13781.9
23457.4,13772.5
23456,13763
23455.5,13753.3
23455.5,13389.2
23456,13379.5
23457.4,13370
23459.8,13360.6
23463,13351.5
23467.1,13342.8
23472.1,13334.5
23477.9,13326.7
23484.3,13319.6
23491.5,13313.1
23499.3,13307.3
23507.5,13302.4
23516.3,13298.2
23525.4,13295
23534.7,13292.6
23544.3,13291.2
23553.9,13290.7
24046.1,13290.7
Z" /> 
<path style="fill:#000000; fill-opacity:1.0; 
stroke:#000000; stroke-width:0; stroke-opacity:1; 
stroke-linecap:round; stroke-linejoin:round;fill-rule:evenodd;"
d="M 24055.7,12120
24065.3,12121.4
24074.6,12123.7
24083.7,12127
24092.5,12131.1
24100.7,12136.1
24108.5,12141.8
24115.7,12148.3
24122.1,12155.5
24127.9,12163.2
24132.9,12171.5
24137,12180.2
24140.2,12189.3
24142.6,12198.7
24144,12208.3
24144.5,12217.9
24144.5,12582.1
24144,12591.7
24142.6,12601.3
24140.2,12610.7
24137,12619.8
24132.9,12628.5
24127.9,12636.8
24122.1,12644.5
24115.7,12651.7
24108.5,12658.2
24100.7,12663.9
24092.5,12668.9
24083.7,12673
24074.6,12676.3
24065.3,12678.6
24055.7,12680
24046.1,12680.5
23553.9,12680.5
23544.3,12680
23534.7,12678.6
23525.4,12676.3
23516.3,12673
23507.5,12668.9
23499.3,12663.9
23491.5,12658.2
23484.3,12651.7
23477.9,12644.5
23472.1,12636.8
23467.1,12628.5
23463,12619.8
23459.8,12610.7
23457.4,12601.3
23456,12591.7
23455.5,12582.1
23455.5,12217.9
23456,12208.3
23457.4,12198.7
23459.8,12189.3
23463,12180.2
23467.1,12171.5
23472.1,12163.2
23477.9,12155.5
23484.3,12148.3
23491.5,12141.8
23499.3,12136.1
23507.5,12131.1
23516.3,12127
23525.4,12123.7
23534.7,12121.4
23544.3,12120
23553.9,12119.5
24046.1,12119.5
Z" /> 
</g>
<g >
</g>
<g style="fill:#000000; fill-opacity:1.0; 
stroke:#000000; stroke-width:0; stroke-opacity:1; 
stroke-linecap:round; stroke-linejoin:round;">
<path style="fill:#000000; fill-opacity:1.0; 
stroke:#000000; stroke-width:0; stroke-opacity:1; 
stroke-linecap:round; stroke-linejoin:round;fill-rule:evenodd;"
d="M 24055.7,18105.6
24065.3,18107
24074.6,18109.4
24083.7,18112.6
24092.5,18116.7
24100.7,18121.7
24108.5,18127.5
24115.7,18133.9
24122.1,18141.1
24127.9,18148.9
24132.9,18157.1
24137,18165.9
24140.2,18175
24142.6,18184.3
24144,18193.9
24144.5,18203.5
24144.5,18567.7
24144,18577.4
24142.6,18586.9
24140.2,18596.3
24137,18605.4
24132.9,18614.1
24127.9,18622.4
24122.1,18630.2
24115.7,18637.3
24108.5,18643.8
24100.7,18649.6
24092.5,18654.5
24083.7,18658.6
24074.6,18661.9
24065.3,18664.3
24055.7,18665.7
24046.1,18666.1
23553.9,18666.1
23544.3,18665.7
23534.7,18664.3
23525.4,18661.9
23516.3,18658.6
23507.5,18654.5
23499.3,18649.6
23491.5,18643.8
23484.3,18637.3
23477.9,18630.2
23472.1,18622.4
23467.1,18614.1
23463,18605.4
23459.8,18596.3
23457.4,18586.9
23456,18577.4
23455.5,18567.7
23455.5,18203.5
23456,18193.9
23457.4,18184.3
23459.8,18175
23463,18165.9
23467.1,18157.1
23472.1,18148.9
23477.9,18141.1
23484.3,18133.9
23491.5,18127.5
23499.3,18121.7
23507.5,18116.7
23516.3,18112.6
23525.4,18109.4
23534.7,18107
23544.3,18105.6
23553.9,18105.1
24046.1,18105.1
Z" /> 
<path style="fill:#000000; fill-opacity:1.0; 
stroke:#000000; stroke-width:0; stroke-opacity:1; 
stroke-linecap:round; stroke-linejoin:round;fill-rule:evenodd;"
d="M 24055.7,16934.3
24065.3,16935.7
24074.6,16938.1
24083.7,16941.4
24092.5,16945.5
24100.7,16950.4
24108.5,16956.2
24115.7,16962.7
24122.1,16969.8
24127.9,16977.6
24132.9,16985.9
24137,16994.6
24140.2,17003.7
24142.6,17013.1
24144,17022.6
24144.5,17032.3
24144.5,17396.5
24144,17406.1
24142.6,17415.7
24140.2,17425
24137,17434.1
24132.9,17442.9
24127.9,17451.1
24122.1,17458.9
24115.7,17466.1
24108.5,17472.5
24100.7,17478.3
24092.5,17483.3
24083.7,17487.4
24074.6,17490.6
24065.3,17493
24055.7,17494.4
24046.1,17494.9
23553.9,17494.9
23544.3,17494.4
23534.7,17493
23525.4,17490.6
23516.3,17487.4
23507.5,17483.3
23499.3,17478.3
23491.5,17472.5
23484.3,17466.1
23477.9,17458.9
23472.1,17451.1
23467.1,17442.9
23463,17434.1
23459.8,17425
23457.4,17415.7
23456,17406.1
23455.5,17396.5
23455.5,17032.3
23456,17022.6
23457.4,17013.1
23459.8,17003.7
23463,16994.6
23467.1,16985.9
23472.1,16977.6
23477.9,16969.8
23484.3,16962.7
23491.5,16956.2
23499.3,16950.4
23507.5,16945.5
23516.3,16941.4
23525.4,16938.1
23534.7,16935.7
23544.3,16934.3
23553.9,16933.9
24046.1,16933.9
Z" /> 
</g>
<g >
</g>
<g style="fill:#000000; fill-opacity:1.0; 
stroke:#000000; stroke-width:0; stroke-opacity:1; 
stroke-linecap:round; stroke-linejoin:round;">
<path style="fill:#000000; fill-opacity:1.0; 
stroke:#000000; stroke-width:0; stroke-opacity:1; 
stroke-linecap:round; stroke-linejoin:round;fill-rule:evenodd;"
d="M 18255.7,18105.6
18265.3,18107
18274.6,18109.4
18283.7,18112.6
18292.5,18116.7
18300.7,18121.7
18308.5,18127.5
18315.7,18133.9
18322.1,18141.1
18327.9,18148.9
18332.9,18157.1
18337,18165.9
18340.2,18175
18342.6,18184.3
18344,18193.9
18344.5,18203.5
18344.5,18567.7
18344,18577.4
18342.6,18586.9
18340.2,18596.3
18337,18605.4
18332.9,18614.1
18327.9,18622.4
18322.1,18630.2
18315.7,18637.3
18308.5,18643.8
18300.7,18649.6
18292.5,18654.5
18283.7,18658.6
18274.6,18661.9
18265.3,18664.3
18255.7,18665.7
18246.1,18666.1
17753.9,18666.1
17744.3,18665.7
17734.7,18664.3
17725.4,18661.9
17716.3,18658.6
17707.5,18654.5
17699.3,18649.6
17691.5,18643.8
17684.3,18637.3
17677.9,18630.2
17672.1,18622.4
17667.1,18614.1
17663,18605.4
17659.8,18596.3
17657.4,18586.9
17656,18577.4
17655.5,18567.7
17655.5,18203.5
17656,18193.9
17657.4,18184.3
17659.8,18175
17663,18165.9
17667.1,18157.1
17672.1,18148.9
17677.9,18141.1
17684.3,18133.9
17691.5,18127.5
17699.3,18121.7
17707.5,18116.7
17716.3,18112.6
17725.4,18109.4
17734.7,18107
17744.3,18105.6
17753.9,18105.1
18246.1,18105.1
Z" /> 
<path style="fill:#000000; fill-opacity:1.0; 
stroke:#000000; stroke-width:0; stroke-opacity:1; 
stroke-linecap:round; stroke-linejoin:round;fill-rule:evenodd;"
d="M 18255.7,16934.3
18265.3,16935.7
18274.6,16938.1
18283.7,16941.4
18292.5,16945.5
18300.7,16950.4
18308.5,16956.2
18315.7,16962.7
18322.1,16969.8
18327.9,16977.6
18332.9,16985.9
18337,16994.6
18340.2,17003.7
18342.6,17013.1
18344,17022.6
18344.5,17032.3
18344.5,17396.5
18344,17406.1
18342.6,17415.7
18340.2,17425
18337,17434.1
18332.9,17442.9
18327.9,17451.1
18322.1,17458.9
18315.7,17466.1
18308.5,17472.5
18300.7,17478.3
18292.5,17483.3
18283.7,17487.4
18274.6,17490.6
18265.3,17493
18255.7,17494.4
18246.1,17494.9
17753.9,17494.9
17744.3,17494.4
17734.7,17493
17725.4,17490.6
17716.3,17487.4
17707.5,17483.3
17699.3,17478.3
17691.5,17472.5
17684.3,17466.1
17677.9,17458.9
17672.1,17451.1
17667.1,17442.9
17663,17434.1
17659.8,17425
17657.4,17415.7
17656,17406.1
17655.5,17396.5
17655.5,17032.3
17656,17022.6
17657.4,17013.1
17659.8,17003.7
17663,16994.6
17667.1,16985.9
17672.1,16977.6
17677.9,16969.8
17684.3,16962.7
17691.5,16956.2
17699.3,16950.4
17707.5,16945.5
17716.3,16941.4
17725.4,16938.1
17734.7,16935.7
17744.3,16934.3
17753.9,16933.9
18246.1,16933.9
Z" /> 
</g>
<g >
</g>
<g style="fill:#000000; fill-opacity:1.0; 
stroke:#000000; stroke-width:0; stroke-opacity:1; 
stroke-linecap:round; stroke-linejoin:round;">
<path style="fill:#000000; fill-opacity:1.0; 
stroke:#000000; stroke-width:0; stroke-opacity:1; 
stroke-linecap:round; stroke-linejoin:round;fill-rule:evenodd;"
d="M 18255.7,13305.6
18265.3,13307
18274.6,13309.4
18283.7,13312.6
18292.5,13316.7
18300.7,13321.7
18308.5,13327.5
18315.7,13333.9
18322.1,13341.1
18327.9,13348.9
18332.9,13357.1
18337,13365.9
18340.2,13375
18342.6,13384.3
18344,13393.9
18344.5,13403.5
18344.5,13767.7
18344,13777.4
18342.6,13786.9
18340.2,13796.3
18337,13805.4
18332.9,13814.1
18327.9,13822.4
18322.1,13830.2
18315.7,13837.3
18308.5,13843.8
18300.7,13849.6
18292.5,13854.5
18283.7,13858.6
18274.6,13861.9
18265.3,13864.3
18255.7,13865.7
18246.1,13866.1
17753.9,13866.1
17744.3,13865.7
17734.7,13864.3
17725.4,13861.9
17716.3,13858.6
17707.5,13854.5
17699.3,13849.6
17691.5,13843.8
17684.3,13837.3
17677.9,13830.2
17672.1,13822.4
17667.1,13814.1
17663,13805.4
17659.8,13796.3
17657.4,13786.9
17656,13777.4
17655.5,13767.7
17655.5,13403.5
17656,13393.9
17657.4,13384.3
17659.8,13375
17663,13365.9
17667.1,13357.1
17672.1,13348.9
17677.9,13341.1
17684.3,13333.9
17691.5,13327.5
17699.3,13321.7
17707.5,13316.7
17716.3,13312.6
17725.4,13309.4
17734.7,13307
17744.3,13305.6
17753.9,13305.1
18246.1,13305.1
Z" /> 
<path style="fill:#000000; fill-opacity:1.0; 
stroke:#000000; stroke-width:0; stroke-opacity:1; 
stroke-linecap:round; stroke-linejoin:round;fill-rule:evenodd;"
d="M 18255.7,12134.3
18265.3,12135.7
18274.6,12138.1
18283.7,12141.4
18292.5,12145.5
18300.7,12150.4
18308.5,12156.2
18315.7,12162.7
18322.1,12169.8
18327.9,12177.6
18332.9,12185.9
18337,12194.6
18340.2,12203.7
18342.6,12213.1
18344,12222.6
18344.5,12232.3
18344.5,12596.5
18344,12606.1
18342.6,12615.7
18340.2,12625
18337,12634.1
18332.9,12642.9
18327.9,12651.1
18322.1,12658.9
18315.7,12666.1
18308.5,12672.5
18300.7,12678.3
18292.5,12683.3
18283.7,12687.4
18274.6,12690.6
18265.3,12693
18255.7,12694.4
18246.1,12694.9
17753.9,12694.9
17744.3,12694.4
17734.7,12693
17725.4,12690.6
17716.3,12687.4
17707.5,12683.3
17699.3,12678.3
17691.5,12672.5
17684.3,12666.1
17677.9,12658.9
17672.1,12651.1
17667.1,12642.9
17663,12634.1
17659.8,12625
17657.4,12615.7
17656,12606.1
17655.5,12596.5
17655.5,12232.3
17656,12222.6
17657.4,12213.1
17659.8,12203.7
17663,12194.6
17667.1,12185.9
17672.1,12177.6
17677.9,12169.8
17684.3,12162.7
17691.5,12156.2
17699.3,12150.4
17707.5,12145.5
17716.3,12141.4
17725.4,12138.1
17734.7,12135.7
17744.3,12134.3
17753.9,12133.9
18246.1,12133.9
Z" /> 
</g>
<g >
</g>
<g style="fill:#000000; fill-opacity:1.0; 
stroke:#000000; stroke-width:0; stroke-opacity:1; 
stroke-linecap:round; stroke-linejoin:round;">
<path style="fill:#000000; fill-opacity:1.0; 
stroke:#000000; stroke-width:0; stroke-opacity:1; 
stroke-linecap:round; stroke-linejoin:round;fill-rule:evenodd;"
d="M 15655.7,13305.6
15665.3,13307
15674.6,13309.4
15683.7,13312.6
15692.5,13316.7
15700.7,13321.7
15708.5,13327.5
15715.7,13333.9
15722.1,13341.1
15727.9,13348.9
15732.9,13357.1
15737,13365.9
15740.2,13375
15742.6,13384.3
15744,13393.9
15744.5,13403.5
15744.5,13767.7
15744,13777.4
15742.6,13786.9
15740.2,13796.3
15737,13805.4
15732.9,13814.1
15727.9,13822.4
15722.1,13830.2
15715.7,13837.3
15708.5,13843.8
15700.7,13849.6
15692.5,13854.5
15683.7,13858.6
15674.6,13861.9
15665.3,13864.3
15655.7,13865.7
15646.1,13866.1
15153.9,13866.1
15144.3,13865.7
15134.7,13864.3
15125.4,13861.9
15116.3,13858.6
15107.5,13854.5
15099.3,13849.6
15091.5,13843.8
15084.3,13837.3
15077.9,13830.2
15072.1,13822.4
15067.1,13814.1
15063,13805.4
15059.8,13796.3
15057.4,13786.9
15056,13777.4
15055.5,13767.7
15055.5,13403.5
15056,13393.9
15057.4,13384.3
15059.8,13375
15063,13365.9
15067.1,13357.1
15072.1,13348.9
15077.9,13341.1
15084.3,13333.9
15091.5,13327.5
15099.3,13321.7
15107.5,13316.7
15116.3,13312.6
15125.4,13309.4
15134.7,13307
15144.3,13305.6
15153.9,13305.1
15646.1,13305.1
Z" /> 
<path style="fill:#000000; fill-opacity:1.0; 
stroke:#000000; stroke-width:0; stroke-opacity:1; 
stroke-linecap:round; stroke-linejoin:round;fill-rule:evenodd;"
d="M 15655.7,12134.3
15665.3,12135.7
15674.6,12138.1
15683.7,12141.4
15692.5,12145.5
15700.7,12150.4
15708.5,12156.2
15715.7,12162.7
15722.1,12169.8
15727.9,12177.6
15732.9,12185.9
15737,12194.6
15740.2,12203.7
15742.6,12213.1
15744,12222.6
15744.5,12232.3
15744.5,12596.5
15744,12606.1
15742.6,12615.7
15740.2,12625
15737,12634.1
15732.9,12642.9
15727.9,12651.1
15722.1,12658.9
15715.7,12666.1
15708.5,12672.5
15700.7,12678.3
15692.5,12683.3
15683.7,12687.4
15674.6,12690.6
15665.3,12693
15655.7,12694.4
15646.1,12694.9
15153.9,12694.9
15144.3,12694.4
15134.7,12693
15125.4,12690.6
15116.3,12687.4
15107.5,12683.3
15099.3,12678.3
15091.5,12672.5
15084.3,12666.1
15077.9,12658.9
15072.1,12651.1
15067.1,12642.9
15063,12634.1
15059.8,12625
15057.4,12615.7
15056,12606.1
15055.5,12596.5
15055.5,12232.3
15056,12222.6
15057.4,12213.1
15059.8,12203.7
15063,12194.6
15067.1,12185.9
15072.1,12177.6
15077.9,12169.8
15084.3,12162.7
15091.5,12156.2
15099.3,12150.4
15107.5,12145.5
15116.3,12141.4
15125.4,12138.1
15134.7,12135.7
15144.3,12134.3
15153.9,12133.9
15646.1,12133.9
Z" /> 
</g>
<g >
</g>
<g style="fill:#000000; fill-opacity:1.0; 
stroke:#000000; stroke-width:0; stroke-opacity:1; 
stroke-linecap:round; stroke-linejoin:round;">
<path style="fill:#000000; fill-opacity:1.0; 
stroke:#000000; stroke-width:0; stroke-opacity:1; 
stroke-linecap:round; stroke-linejoin:round;fill-rule:evenodd;"
d="M 15655.7,18105.6
15665.3,18107
15674.6,18109.4
15683.7,18112.6
15692.5,18116.7
15700.7,18121.7
15708.5,18127.5
15715.7,18133.9
15722.1,18141.1
15727.9,18148.9
15732.9,18157.1
15737,18165.9
15740.2,18175
15742.6,18184.3
15744,18193.9
15744.5,18203.5
15744.5,18567.7
15744,18577.4
15742.6,18586.9
15740.2,18596.3
15737,18605.4
15732.9,18614.1
15727.9,18622.4
15722.1,18630.2
15715.7,18637.3
15708.5,18643.8
15700.7,18649.6
15692.5,18654.5
15683.7,18658.6
15674.6,18661.9
15665.3,18664.3
15655.7,18665.7
15646.1,18666.1
15153.9,18666.1
15144.3,18665.7
15134.7,18664.3
15125.4,18661.9
15116.3,18658.6
15107.5,18654.5
15099.3,18649.6
15091.5,18643.8
15084.3,18637.3
15077.9,18630.2
15072.1,18622.4
15067.1,18614.1
15063,18605.4
15059.8,18596.3
15057.4,18586.9
15056,18577.4
15055.5,18567.7
15055.5,18203.5
15056,18193.9
15057.4,18184.3
15059.8,18175
15063,18165.9
15067.1,18157.1
15072.1,18148.9
15077.9,18141.1
15084.3,18133.9
15091.5,18127.5
15099.3,18121.7
15107.5,18116.7
15116.3,18112.6
15125.4,18109.4
15134.7,18107
15144.3,18105.6
15153.9,18105.1
15646.1,18105.1
Z" /> 
<path style="fill:#000000; fill-opacity:1.0; 
stroke:#000000; stroke-width:0; stroke-opacity:1; 
stroke-linecap:round; stroke-linejoin:round;fill-rule:evenodd;"
d="M 15655.7,16934.3
15665.3,16935.7
15674.6,16938.1
15683.7,16941.4
15692.5,16945.5
15700.7,16950.4
15708.5,16956.2
15715.7,16962.7
15722.1,16969.8
15727.9,16977.6
15732.9,16985.9
15737,16994.6
15740.2,17003.7
15742.6,17013.1
15744,17022.6
15744.5,17032.3
15744.5,17396.5
15744,17406.1
15742.6,17415.7
15740.2,17425
15737,17434.1
15732.9,17442.9
15727.9,17451.1
15722.1,17458.9
15715.7,17466.1
15708.5,17472.5
15700.7,17478.3
15692.5,17483.3
15683.7,17487.4
15674.6,17490.6
15665.3,17493
15655.7,17494.4
15646.1,17494.9
15153.9,17494.9
15144.3,17494.4
15134.7,17493
15125.4,17490.6
15116.3,17487.4
15107.5,17483.3
15099.3,17478.3
15091.5,17472.5
15084.3,17466.1
15077.9,17458.9
15072.1,17451.1
15067.1,17442.9
15063,17434.1
15059.8,17425
15057.4,17415.7
15056,17406.1
15055.5,17396.5
15055.5,17032.3
15056,17022.6
15057.4,17013.1
15059.8,17003.7
15063,16994.6
15067.1,16985.9
15072.1,16977.6
15077.9,16969.8
15084.3,16962.7
15091.5,16956.2
15099.3,16950.4
15107.5,16945.5
15116.3,16941.4
15125.4,16938.1
15134.7,16935.7
15144.3,16934.3
15153.9,16933.9
15646.1,16933.9
Z" /> 
</g>
<g >
</g>
<g style="fill:#000000; fill-opacity:1.0; 
stroke:#000000; stroke-width:0; stroke-opacity:1; 
stroke-linecap:round; stroke-linejoin:round;">
<path style="fill:#000000; fill-opacity:1.0; 
stroke:#000000; stroke-width:0; stroke-opacity:1; 
stroke-linecap:round; stroke-linejoin:round;fill-rule:evenodd;"
d="M 9855.71,18091.2
9865.26,18092.6
9874.63,18095
9883.73,18098.2
9892.46,18102.4
9900.75,18107.3
9908.5,18113.1
9915.66,18119.6
9922.15,18126.7
9927.9,18134.5
9932.87,18142.8
9937,18151.5
9940.25,18160.6
9942.6,18170
9944.01,18179.5
9944.49,18189.2
9944.49,18553.3
9944.01,18563
9942.6,18572.5
9940.25,18581.9
9937,18591
9932.87,18599.7
9927.9,18608
9922.15,18615.8
9915.66,18622.9
9908.5,18629.4
9900.75,18635.2
9892.46,18640.1
9883.73,18644.3
9874.63,18647.5
9865.26,18649.9
9855.71,18651.3
9846.06,18651.8
9353.94,18651.8
9344.29,18651.3
9334.74,18649.9
9325.37,18647.5
9316.27,18644.3
9307.54,18640.1
9299.25,18635.2
9291.5,18629.4
9284.34,18622.9
9277.85,18615.8
9272.1,18608
9267.13,18599.7
9263,18591
9259.75,18581.9
9257.4,18572.5
9255.99,18563
9255.51,18553.3
9255.51,18189.2
9255.99,18179.5
9257.4,18170
9259.75,18160.6
9263,18151.5
9267.13,18142.8
9272.1,18134.5
9277.85,18126.7
9284.34,18119.6
9291.5,18113.1
9299.25,18107.3
9307.54,18102.4
9316.27,18098.2
9325.37,18095
9334.74,18092.6
9344.29,18091.2
9353.94,18090.7
9846.06,18090.7
Z" /> 
<path style="fill:#000000; fill-opacity:1.0; 
stroke:#000000; stroke-width:0; stroke-opacity:1; 
stroke-linecap:round; stroke-linejoin:round;fill-rule:evenodd;"
d="M 9855.71,16920
9865.26,16921.4
9874.63,16923.7
9883.73,16927
9892.46,16931.1
9900.75,16936.1
9908.5,16941.8
9915.66,16948.3
9922.15,16955.5
9927.9,16963.2
9932.87,16971.5
9937,16980.2
9940.25,16989.3
9942.6,16998.7
9944.01,17008.3
9944.49,17017.9
9944.49,17382.1
9944.01,17391.7
9942.6,17401.3
9940.25,17410.7
9937,17419.8
9932.87,17428.5
9927.9,17436.8
9922.15,17444.5
9915.66,17451.7
9908.5,17458.2
9900.75,17463.9
9892.46,17468.9
9883.73,17473
9874.63,17476.3
9865.26,17478.6
9855.71,17480
9846.06,17480.5
9353.94,17480.5
9344.29,17480
9334.74,17478.6
9325.37,17476.3
9316.27,17473
9307.54,17468.9
9299.25,17463.9
9291.5,17458.2
9284.34,17451.7
9277.85,17444.5
9272.1,17436.8
9267.13,17428.5
9263,17419.8
9259.75,17410.7
9257.4,17401.3
9255.99,17391.7
9255.51,17382.1
9255.51,17017.9
9255.99,17008.3
9257.4,16998.7
9259.75,16989.3
9263,16980.2
9267.13,16971.5
9272.1,16963.2
9277.85,16955.5
9284.34,16948.3
9291.5,16941.8
9299.25,16936.1
9307.54,16931.1
9316.27,16927
9325.37,16923.7
9334.74,16921.4
9344.29,16920
9353.94,16919.5
9846.06,16919.5
Z" /> 
</g>
<g >
</g>
<g style="fill:#000000; fill-opacity:1.0; 
stroke:#000000; stroke-width:0; stroke-opacity:1; 
stroke-linecap:round; stroke-linejoin:round;">
<path style="fill:#000000; fill-opacity:1.0; 
stroke:#000000; stroke-width:0; stroke-opacity:1; 
stroke-linecap:round; stroke-linejoin:round;fill-rule:evenodd;"
d="M 9855.71,13305.6
9865.26,13307
9874.63,13309.4
9883.73,13312.6
9892.46,13316.7
9900.75,13321.7
9908.5,13327.5
9915.66,13333.9
9922.15,13341.1
9927.9,13348.9
9932.87,13357.1
9937,13365.9
9940.25,13375
9942.6,13384.3
9944.01,13393.9
9944.49,13403.5
9944.49,13767.7
9944.01,13777.4
9942.6,13786.9
9940.25,13796.3
9937,13805.4
9932.87,13814.1
9927.9,13822.4
9922.15,13830.2
9915.66,13837.3
9908.5,13843.8
9900.75,13849.6
9892.46,13854.5
9883.73,13858.6
9874.63,13861.9
9865.26,13864.3
9855.71,13865.7
9846.06,13866.1
9353.94,13866.1
9344.29,13865.7
9334.74,13864.3
9325.37,13861.9
9316.27,13858.6
9307.54,13854.5
9299.25,13849.6
9291.5,13843.8
9284.34,13837.3
9277.85,13830.2
9272.1,13822.4
9267.13,13814.1
9263,13805.4
9259.75,13796.3
9257.4,13786.9
9255.99,13777.4
9255.51,13767.7
9255.51,13403.5
9255.99,13393.9
9257.4,13384.3
9259.75,13375
9263,13365.9
9267.13,13357.1
9272.1,13348.9
9277.85,13341.1
9284.34,13333.9
9291.5,13327.5
9299.25,13321.7
9307.54,13316.7
9316.27,13312.6
9325.37,13309.4
9334.74,13307
9344.29,13305.6
9353.94,13305.1
9846.06,13305.1
Z" /> 
<path style="fill:#000000; fill-opacity:1.0; 
stroke:#000000; stroke-width:0; stroke-opacity:1; 
stroke-linecap:round; stroke-linejoin:round;fill-rule:evenodd;"
d="M 9855.71,12134.3
9865.26,12135.7
9874.63,12138.1
9883.73,12141.4
9892.46,12145.5
9900.75,12150.4
9908.5,12156.2
9915.66,12162.7
9922.15,12169.8
9927.9,12177.6
9932.87,12185.9
9937,12194.6
9940.25,12203.7
9942.6,12213.1
9944.01,12222.6
9944.49,12232.3
9944.49,12596.5
9944.01,12606.1
9942.6,12615.7
9940.25,12625
9937,12634.1
9932.87,12642.9
9927.9,12651.1
9922.15,12658.9
9915.66,12666.1
9908.5,12672.5
9900.75,12678.3
9892.46,12683.3
9883.73,12687.4
9874.63,12690.6
9865.26,12693
9855.71,12694.4
9846.06,12694.9
9353.94,12694.9
9344.29,12694.4
9334.74,12693
9325.37,12690.6
9316.27,12687.4
9307.54,12683.3
9299.25,12678.3
9291.5,12672.5
9284.34,12666.1
9277.85,12658.9
9272.1,12651.1
9267.13,12642.9
9263,12634.1
9259.75,12625
9257.4,12615.7
9255.99,12606.1
9255.51,12596.5
9255.51,12232.3
9255.99,12222.6
9257.4,12213.1
9259.75,12203.7
9263,12194.6
9267.13,12185.9
9272.1,12177.6
9277.85,12169.8
9284.34,12162.7
9291.5,12156.2
9299.25,12150.4
9307.54,12145.5
9316.27,12141.4
9325.37,12138.1
9334.74,12135.7
9344.29,12134.3
9353.94,12133.9
9846.06,12133.9
Z" /> 
</g>
<g >
</g>
<g style="fill:#000000; fill-opacity:1.0; 
stroke:#000000; stroke-width:0; stroke-opacity:1; 
stroke-linecap:round; stroke-linejoin:round;">
</g>
<g style="fill:#000000; fill-opacity:1.0; 
stroke:#000000; stroke-width:750; stroke-opacity:1; 
stroke-linecap:round; stroke-linejoin:round;">
</g>
<g style="fill:#000000; fill-opacity:0.0; 
stroke:#000000; stroke-width:750; stroke-opacity:1; 
stroke-linecap:round; stroke-linejoin:round;">
<path d="M22581 15200
L22618 15200
" />
<path d="M22581 16200
L22618 16200
" />
</g>
<g style="fill:#000000; fill-opacity:0.0; 
stroke:#000000; stroke-width:0; stroke-opacity:1; 
stroke-linecap:round; stroke-linejoin:round;">
</g>
<g style="fill:#000000; fill-opacity:1.0; 
stroke:#000000; stroke-width:0; stroke-opacity:1; 
stroke-linecap:round; stroke-linejoin:round;">
<path style="fill:#000000; fill-opacity:1.0; 
stroke:#000000; stroke-width:0; stroke-opacity:1; 
stroke-linecap:round; stroke-linejoin:round;fill-rule:evenodd;"
d="M 22993.7,17575
22206.3,17575
22206.3,16825
22993.7,16825
Z" /> 
</g>
<g >
</g>
<g style="fill:#000000; fill-opacity:1.0; 
stroke:#000000; stroke-width:0; stroke-opacity:1; 
stroke-linecap:round; stroke-linejoin:round;">
</g>
<g style="fill:#000000; fill-opacity:1.0; 
stroke:#000000; stroke-width:750; stroke-opacity:1; 
stroke-linecap:round; stroke-linejoin:round;">
</g>
<g style="fill:#000000; fill-opacity:0.0; 
stroke:#000000; stroke-width:750; stroke-opacity:1; 
stroke-linecap:round; stroke-linejoin:round;">
<path d="M22581 10400
L22618 10400
" />
<path d="M22581 11400
L22618 11400
" />
</g>
<g style="fill:#000000; fill-opacity:0.0; 
stroke:#000000; stroke-width:0; stroke-opacity:1; 
stroke-linecap:round; stroke-linejoin:round;">
</g>
<g style="fill:#000000; fill-opacity:1.0; 
stroke:#000000; stroke-width:0; stroke-opacity:1; 
stroke-linecap:round; stroke-linejoin:round;">
<path style="fill:#000000; fill-opacity:1.0; 
stroke:#000000; stroke-width:0; stroke-opacity:1; 
stroke-linecap:round; stroke-linejoin:round;fill-rule:evenodd;"
d="M 22993.7,12775
22206.3,12775
22206.3,12025
22993.7,12025
Z" /> 
</g>
<g >
</g>
<g style="fill:#000000; fill-opacity:1.0; 
stroke:#000000; stroke-width:0; stroke-opacity:1; 
stroke-linecap:round; stroke-linejoin:round;">
</g>
<g style="fill:#000000; fill-opacity:1.0; 
stroke:#000000; stroke-width:750; stroke-opacity:1; 
stroke-linecap:round; stroke-linejoin:round;">
</g>
<g style="fill:#000000; fill-opacity:0.0; 
stroke:#000000; stroke-width:750; stroke-opacity:1; 
stroke-linecap:round; stroke-linejoin:round;">
<path d="M19181 15200
L19218 15200
" />
<path d="M19181 16200
L19218 16200
" />
</g>
<g style="fill:#000000; fill-opacity:0.0; 
stroke:#000000; stroke-width:0; stroke-opacity:1; 
stroke-linecap:round; stroke-linejoin:round;">
</g>
<g style="fill:#000000; fill-opacity:1.0; 
stroke:#000000; stroke-width:0; stroke-opacity:1; 
stroke-linecap:round; stroke-linejoin:round;">
<path style="fill:#000000; fill-opacity:1.0; 
stroke:#000000; stroke-width:0; stroke-opacity:1; 
stroke-linecap:round; stroke-linejoin:round;fill-rule:evenodd;"
d="M 19593.7,17575
18806.3,17575
18806.3,16825
19593.7,16825
Z" /> 
</g>
<g >
</g>
<g style="fill:#000000; fill-opacity:1.0; 
stroke:#000000; stroke-width:0; stroke-opacity:1; 
stroke-linecap:round; stroke-linejoin:round;">
</g>
<g style="fill:#000000; fill-opacity:1.0; 
stroke:#000000; stroke-width:750; stroke-opacity:1; 
stroke-linecap:round; stroke-linejoin:round;">
</g>
<g style="fill:#000000; fill-opacity:0.0; 
stroke:#000000; stroke-width:750; stroke-opacity:1; 
stroke-linecap:round; stroke-linejoin:round;">
<path d="M19181 10400
L19218 10400
" />
<path d="M19181 11400
L19218 11400
" />
</g>
<g style="fill:#000000; fill-opacity:0.0; 
stroke:#000000; stroke-width:0; stroke-opacity:1; 
stroke-linecap:round; stroke-linejoin:round;">
</g>
<g style="fill:#000000; fill-opacity:1.0; 
stroke:#000000; stroke-width:0; stroke-opacity:1; 
stroke-linecap:round; stroke-linejoin:round;">
<path style="fill:#000000; fill-opacity:1.0; 
stroke:#000000; stroke-width:0; stroke-opacity:1; 
stroke-linecap:round; stroke-linejoin:round;fill-rule:evenodd;"
d="M 19593.7,12775
18806.3,12775
18806.3,12025
19593.7,12025
Z" /> 
</g>
<g >
</g>
<g style="fill:#000000; fill-opacity:1.0; 
stroke:#000000; stroke-width:0; stroke-opacity:1; 
stroke-linecap:round; stroke-linejoin:round;">
</g>
<g style="fill:#000000; fill-opacity:1.0; 
stroke:#000000; stroke-width:750; stroke-opacity:1; 
stroke-linecap:round; stroke-linejoin:round;">
</g>
<g style="fill:#000000; fill-opacity:0.0; 
stroke:#000000; stroke-width:750; stroke-opacity:1; 
stroke-linecap:round; stroke-linejoin:round;">
<path d="M14181 15200
L14218 15200
" />
<path d="M14181 16200
L14218 16200
" />
</g>
<g style="fill:#000000; fill-opacity:0.0; 
stroke:#000000; stroke-width:0; stroke-opacity:1; 
stroke-linecap:round; stroke-linejoin:round;">
</g>
<g style="fill:#000000; fill-opacity:1.0; 
stroke:#000000; stroke-width:0; stroke-opacity:1; 
stroke-linecap:round; stroke-linejoin:round;">
<path style="fill:#000000; fill-opacity:1.0; 
stroke:#000000; stroke-width:0; stroke-opacity:1; 
stroke-linecap:round; stroke-linejoin:round;fill-rule:evenodd;"
d="M 14593.7,17575
13806.3,17575
13806.3,16825
14593.7,16825
Z" /> 
</g>
<g >
</g>
<g style="fill:#000000; fill-opacity:1.0; 
stroke:#000000; stroke-width:0; stroke-opacity:1; 
stroke-linecap:round; stroke-linejoin:round;">
</g>
<g style="fill:#000000; fill-opacity:1.0; 
stroke:#000000; stroke-width:750; stroke-opacity:1; 
stroke-linecap:round; stroke-linejoin:round;">
</g>
<g style="fill:#000000; fill-opacity:0.0; 
stroke:#000000; stroke-width:750; stroke-opacity:1; 
stroke-linecap:round; stroke-linejoin:round;">
<path d="M14181 10400
L14218 10400
" />
<path d="M14181 11400
L14218 11400
" />
</g>
<g style="fill:#000000; fill-opacity:0.0; 
stroke:#000000; stroke-width:0; stroke-opacity:1; 
stroke-linecap:round; stroke-linejoin:round;">
</g>
<g style="fill:#000000; fill-opacity:1.0; 
stroke:#000000; stroke-width:0; stroke-opacity:1; 
stroke-linecap:round; stroke-linejoin:round;">
<path style="fill:#000000; fill-opacity:1.0; 
stroke:#000000; stroke-width:0; stroke-opacity:1; 
stroke-linecap:round; stroke-linejoin:round;fill-rule:evenodd;"
d="M 14593.7,12775
13806.3,12775
13806.3,12025
14593.7,12025
Z" /> 
</g>
<g >
</g>
<g style="fill:#000000; fill-opacity:1.0; 
stroke:#000000; stroke-width:0; stroke-opacity:1; 
stroke-linecap:round; stroke-linejoin:round;">
</g>
<g style="fill:#000000; fill-opacity:1.0; 
stroke:#000000; stroke-width:750; stroke-opacity:1; 
stroke-linecap:round; stroke-linejoin:round;">
</g>
<g style="fill:#000000; fill-opacity:0.0; 
stroke:#000000; stroke-width:750; stroke-opacity:1; 
stroke-linecap:round; stroke-linejoin:round;">
<path d="M10781 10400
L10818 10400
" />
<path d="M10781 11400
L10818 11400
" />
</g>
<g style="fill:#000000; fill-opacity:0.0; 
stroke:#000000; stroke-width:0; stroke-opacity:1; 
stroke-linecap:round; stroke-linejoin:round;">
</g>
<g style="fill:#000000; fill-opacity:1.0; 
stroke:#000000; stroke-width:0; stroke-opacity:1; 
stroke-linecap:round; stroke-linejoin:round;">
<path style="fill:#000000; fill-opacity:1.0; 
stroke:#000000; stroke-width:0; stroke-opacity:1; 
stroke-linecap:round; stroke-linejoin:round;fill-rule:evenodd;"
d="M 11193.7,12775
10406.3,12775
10406.3,12025
11193.7,12025
Z" /> 
</g>
<g >
</g>
<g >
</g>
<g style="fill:#000000; fill-opacity:1.0; 
stroke:#000000; stroke-width:0; stroke-opacity:1; 
stroke-linecap:round; stroke-linejoin:round;">
</g>
<g style="fill:#000000; fill-opacity:1.0; 
stroke:#000000; stroke-width:472.441; stroke-opacity:1; 
stroke-linecap:round; stroke-linejoin:round;">
</g>
<g style="fill:#000000; fill-opacity:0.0; 
stroke:#000000; stroke-width:472.441; stroke-opacity:1; 
stroke-linecap:round; stroke-linejoin:round;">
<path d="M18000 9405
L18000 11400
" />
<path d="M20012 7392
L18000 9405
" />
<path d="M23466 8746
L22112 7392
" />
<path d="M22112 7392
L20012 7392
" />
<path d="M23466 11399
L23466 8746
" />
<path d="M23466 11400
L23466 11399
" />
<path d="M22600 11400
L23466 11400
" />
<path d="M18000 11400
L19200 11400
" />
<path d="M15600 9280
L15600 11400
" />
<path d="M13712 7392
L15600 9280
" />
<path d="M11612 7392
L13712 7392
" />
<path d="M9933 9071
L11612 7392
" />
<path d="M9933 10751
L9933 9071
" />
<path d="M10430 11247
L9933 10751
" />
<path d="M10647 11247
L10430 11247
" />
<path d="M15600 11400
L18000 11400
" />
<path d="M10800 11400
L10647 11247
" />
<path d="M14200 11400
L15600 11400
" />
<path d="M14200 23365
L14200 23200
" />
<path d="M15200 24365
L14200 23365
" />
<path d="M15200 25400
L15200 24365
" />
<path d="M8231 19018
L12413 23200
" />
<path d="M8231 12452
L8231 19018
" />
<path d="M12413 23200
L14200 23200
" />
<path d="M9933 10751
L8231 12452
" />
</g>
<g style="fill:#000000; fill-opacity:0.0; 
stroke:#000000; stroke-width:314.961; stroke-opacity:1; 
stroke-linecap:round; stroke-linejoin:round;">
<path d="M16200 23200
L16200 25400
" />
<path d="M17200 25400
L17200 23200
" />
<path d="M18200 25400
L18200 23200
" />
<path d="M19200 25400
L19200 23200
" />
<path d="M20200 25400
L20200 23200
" />
<path d="M9614 12400
L9600 12414
" />
<path d="M10800 12400
L9614 12400
" />
<path d="M10800 17200
L9600 17200
" />
<path d="M15385 12400
L15400 12414
" />
<path d="M14200 12400
L15385 12400
" />
<path d="M14214 17214
L14200 17200
" />
<path d="M15400 17214
L14214 17214
" />
<path d="M18014 12400
L18000 12414
" />
<path d="M19200 12400
L18014 12400
" />
<path d="M19185 17214
L19200 17200
" />
<path d="M18000 17214
L19185 17214
" />
<path d="M23800 12400
L22600 12400
" />
<path d="M22614 17214
L22600 17200
" />
<path d="M23800 17214
L22614 17214
" />
<path d="M8861 18757
L8861 14323
" />
<path d="M10855 20751
L8861 18757
" />
<path d="M12800 20751
L10855 20751
" />
<path d="M14908 23108
L14908 22859
" />
<path d="M8861 14323
L9600 13585
" />
<path d="M15000 23200
L14908 23108
" />
<path d="M14908 22859
L12800 20751
" />
<path d="M15200 23200
L15000 23200
" />
<path d="M11428 20200
L9600 18371
" />
<path d="M14200 20200
L11428 20200
" />
<path d="M15200 18585
L15400 18385
" />
<path d="M15200 20200
L15200 18585
" />
<path d="M16200 14385
L15400 13585
" />
<path d="M16200 20200
L16200 14385
" />
<path d="M17200 14385
L18000 13585
" />
<path d="M17200 20200
L17200 14385
" />
<path d="M18200 18585
L18000 18385
" />
<path d="M18200 20200
L18200 18585
" />
<path d="M20568 18385
L23800 18385
" />
<path d="M19200 19754
L20568 18385
" />
<path d="M19200 20200
L19200 19754
" />
<path d="M24538 14309
L23800 13571
" />
<path d="M24538 18771
L24538 14309
" />
<path d="M24249 19059
L24538 18771
" />
<path d="M20894 19059
L24249 19059
" />
<path d="M20200 19754
L20894 19059
" />
<path d="M20200 20200
L20200 19754
" />
</g>
<g style="fill:#000000; fill-opacity:0.0; 
stroke:#000000; stroke-width:472.441; stroke-opacity:1; 
stroke-linecap:round; stroke-linejoin:round;">
<path d="M11666 10400
L10800 10400
" />
<path d="M11666 10400
L11666 10400
" />
<path d="M11666 15551
L11666 10400
" />
<path d="M10952 16047
L11169 16047
" />
<path d="M11169 16047
L11666 15551
" />
<path d="M10800 16200
L10952 16047
" />
<path d="M11666 8533
L12000 8200
" />
<path d="M11666 10400
L11666 8533
" />
<path d="M13333 10400
L13333 10400
" />
<path d="M13333 15551
L13333 10400
" />
<path d="M13830 16047
L13333 15551
" />
<path d="M13333 10400
L14200 10400
" />
<path d="M14047 16047
L13830 16047
" />
<path d="M14200 16200
L14047 16047
" />
<path d="M13333 8533
L13000 8200
" />
<path d="M13333 10400
L13333 8533
" />
<path d="M20066 10400
L19200 10400
" />
<path d="M20066 10400
L20066 10400
" />
<path d="M20066 15551
L20066 10400
" />
<path d="M19417 16200
L20066 15551
" />
<path d="M19200 16200
L19417 16200
" />
<path d="M20066 8533
L20400 8200
" />
<path d="M20066 10400
L20066 8533
" />
<path d="M21733 10400
L22600 10400
" />
<path d="M21733 10400
L21733 10400
" />
<path d="M21733 15551
L21733 10400
" />
<path d="M22230 16047
L21733 15551
" />
<path d="M22447 16047
L22230 16047
" />
<path d="M22600 16200
L22447 16047
" />
<path d="M21733 8533
L21400 8200
" />
<path d="M21733 10400
L21733 8533
" />
</g>
<g >
</g>
<g style="fill:#000000; fill-opacity:0.0; 
stroke:#000000; stroke-width:472.441; stroke-opacity:1; 
stroke-linecap:round; stroke-linejoin:round;">
</g>
<g style="fill:#000000; fill-opacity:1.0; 
stroke:#000000; stroke-width:100; stroke-opacity:1; 
stroke-linecap:round; stroke-linejoin:round;">
<path style="fill:#000000; fill-opacity:1.0; 
stroke:#000000; stroke-width:100; stroke-opacity:1; 
stroke-linecap:round; stroke-linejoin:round;fill-rule:evenodd;"
d="M 25700.2,27050
7000.24,27050
7007.43,25540.5
13632.5,25540.5
13670.8,25648.5
13729.5,25747
13806.2,25832.1
13898.1,25900.6
14001.5,25949.9
14059.5,25967.5
14150,25919.7
14150,25450
13680,25450
13632.5,25540.5
7007.43,25540.5
7008.76,25259.5
13632.5,25259.5
13680,25350
14150,25350
14150,24880.3
14059.5,24832.5
14001.5,24850.1
13898.1,24899.4
13806.2,24967.9
13729.5,25053
13670.8,25151.5
13632.5,25259.5
7008.76,25259.5
7069.75,12453
7706.91,12453
7709.44,12478.7
7709.44,18992.5
7706.91,19018.1
7717,19120.5
7746.87,19219
7795.39,19309.8
7844.31,19369.4
7860.67,19389.3
7880.61,19405.7
12026.2,23551.3
12042.6,23571.2
12062.5,23587.6
12062.5,23587.6
12122.1,23636.5
12167.5,23660.8
12212.9,23685
12311.3,23714.9
12388.1,23722.4
12388.1,23722.4
12413.8,23725
12439.4,23722.4
13817.2,23722.4
13828.8,23736.6
13848.7,23752.9
14677.6,24581.8
14677.6,25064.4
14677.4,25064.6
14670.5,25053
14593.8,24967.9
14501.9,24899.4
14398.5,24850.1
14340.5,24832.5
14250,24880.3
14250,25350
14257.9,25350
14257.9,25450
14250,25450
14250,25919.7
14340.5,25967.5
14398.5,25949.9
14501.9,25900.6
14593.8,25832.1
14670.5,25747
14677.4,25735.4
14717.7,25795.8
14804.2,25882.3
14905.9,25950.2
15018.9,25997
15138.9,26020.9
15261.1,26020.9
15381.1,25997
15494.1,25950.2
15595.8,25882.3
15682.3,25795.8
15700,25769.2
15717.7,25795.8
15804.2,25882.3
15905.9,25950.2
16018.9,25997
16138.9,26020.9
16261.1,26020.9
16381.1,25997
16494.1,25950.2
16595.8,25882.3
16682.3,25795.8
16700,25769.2
16717.7,25795.8
16804.2,25882.3
16905.9,25950.2
17018.9,25997
17138.8,26020.9
17261.2,26020.9
17381.1,25997
17494.1,25950.2
17595.8,25882.3
17682.3,25795.8
17700,25769.2
17717.7,25795.8
17804.2,25882.3
17905.9,25950.2
18018.9,25997
18138.8,26020.9
18261.2,26020.9
18381.1,25997
18494.1,25950.2
18595.8,25882.3
18682.3,25795.8
18700,25769.2
18717.7,25795.8
18804.2,25882.3
18905.9,25950.2
19018.9,25997
19138.8,26020.9
19261.2,26020.9
19381.1,25997
19494.1,25950.2
19595.8,25882.3
19611.4,25866.7
19626.2,25894.4
19662,25938
19705.6,25973.8
19755.3,26000.4
19809.2,26016.7
19865.4,26022.3
20534.6,26022.3
20590.8,26016.7
20644.7,26000.4
20694.4,25973.8
20738,25938
20773.8,25894.4
20800.4,25844.7
20816.7,25790.8
20822.3,25734.6
20822.3,25065.4
20816.7,25009.2
20800.4,24955.3
20773.8,24905.6
20738,24862
20694.4,24826.2
20644.7,24799.6
20643.7,24799.3
20643.7,23606.5
20667,23583.2
20700,23533.8
20733,23583.2
20816.8,23667
20915.2,23732.8
21024.6,23778.1
21140.8,23801.2
21259.2,23801.2
21375.4,23778.1
21484.8,23732.8
21583.2,23667
21667,23583.2
21732.8,23484.8
21778.1,23375.4
21801.2,23259.2
21801.2,23140.8
21778.1,23024.6
21732.8,22915.2
21667,22816.8
21583.2,22733
21484.8,22667.2
21375.4,22621.9
21259.2,22598.8
21140.8,22598.8
21024.6,22621.9
20915.2,22667.2
20816.8,22733
20733,22816.8
20700,22866.2
20667,22816.8
20583.2,22733
20484.8,22667.2
20375.4,22621.9
20259.2,22598.8
20140.8,22598.8
20024.6,22621.9
19915.2,22667.2
19816.8,22733
19733,22816.8
19700,22866.2
19667,22816.8
19583.2,22733
19484.8,22667.2
19375.4,22621.9
19259.2,22598.8
19140.8,22598.8
19024.6,22621.9
18915.2,22667.2
18816.8,22733
18733,22816.8
18700,22866.2
18667,22816.8
18583.2,22733
18484.8,22667.2
18375.4,22621.9
18259.2,22598.8
18140.8,22598.8
18024.6,22621.9
17915.2,22667.2
17816.8,22733
17733,22816.8
17700,22866.2
17667,22816.8
17583.2,22733
17484.8,22667.2
17375.4,22621.9
17259.2,22598.8
17140.8,22598.8
17024.6,22621.9
16915.2,22667.2
16816.8,22733
16733,22816.8
16700,22866.2
16667,22816.8
16583.2,22733
16484.8,22667.2
16375.4,22621.9
16259.2,22598.8
16140.8,22598.8
16024.6,22621.9
15915.2,22667.2
15816.8,22733
15733,22816.8
15700,22866.2
15667,22816.8
15583.2,22733
15484.8,22667.2
15375.4,22621.9
15270.2,22601
15268.4,22598.8
15237.8,22561.5
15237.8,22561.5
15223.9,22544.6
15207,22530.7
13320,20643.7
13629.3,20643.7
13645.9,20674.7
13681.7,20718.3
13725.3,20754.1
13775,20780.7
13828.9,20797
13885,20802.6
14515,20802.6
14571.1,20797
14625,20780.7
14674.7,20754.1
14718.3,20718.3
14754.1,20674.7
14778.6,20628.8
14816.8,20667
14915.2,20732.8
15024.6,20778.1
15140.8,20801.2
15259.2,20801.2
15375.4,20778.1
15484.8,20732.8
15583.2,20667
15667,20583.2
15700,20533.8
15733,20583.2
15816.8,20667
15915.2,20732.8
16024.6,20778.1
16140.8,20801.2
16259.2,20801.2
16375.4,20778.1
16484.8,20732.8
16583.2,20667
16667,20583.2
16700,20533.8
16733,20583.2
16816.8,20667
16915.2,20732.8
17024.6,20778.1
17140.8,20801.2
17259.2,20801.2
17375.4,20778.1
17484.8,20732.8
17583.2,20667
17667,20583.2
17700,20533.8
17733,20583.2
17816.8,20667
17915.2,20732.8
18024.6,20778.1
18140.8,20801.2
18259.2,20801.2
18375.4,20778.1
18484.8,20732.8
18583.2,20667
18667,20583.2
18700,20533.8
18733,20583.2
18816.8,20667
18915.2,20732.8
19024.6,20778.1
19140.8,20801.2
19259.2,20801.2
19375.4,20778.1
19484.8,20732.8
19583.2,20667
19667,20583.2
19700,20533.8
19733,20583.2
19816.8,20667
19915.2,20732.8
20024.6,20778.1
20140.8,20801.2
20259.2,20801.2
20375.4,20778.1
20484.8,20732.8
20583.2,20667
20667,20583.2
20723.5,20498.6
20746.3,20536.7
20820.7,20618.7
20909.7,20684.7
21009.8,20732
21062.6,20748
21150,20700
21150,20250
21250,20250
21250,20700
21337.4,20748
21390.2,20732
21490.3,20684.7
21579.3,20618.7
21653.7,20536.7
21710.7,20441.7
21748,20337.4
21700.2,20250
21250,20250
21150,20250
21142.1,20250
21142.1,20150
21150,20150
21150,19700
21250,19700
21250,20150
21700.2,20150
21748,20062.6
21710.7,19958.3
21653.7,19863.3
21579.3,19781.3
21490.3,19715.3
21390.2,19668
21337.4,19652
21250,19700
21150,19700
21062.6,19652
21009.8,19668
20909.7,19715.3
20820.7,19781.3
20746.3,19863.3
20723.5,19901.4
20706.4,19875.7
21078.5,19503.5
24228.1,19503.5
24249.9,19505.7
24271.7,19503.5
24271.7,19503.5
24336.9,19497.1
24420.5,19471.8
24497.6,19430.6
24565.2,19375.1
24579.1,19358.2
24836.5,19100.7
24853.5,19086.8
24908.9,19019.3
24950.1,18942.2
24975.5,18858.5
24981.9,18793.4
24981.9,18793.4
24984,18771.6
24981.9,18749.8
24981.9,14331.2
24984,14309.5
24975.5,14222.5
24950.1,14138.8
24908.9,14061.8
24867.3,14011.1
24867.3,14011.1
24853.5,13994.2
24836.5,13980.3
24432.1,13575.9
24432.1,13389.2
24424.7,13313.9
24402.7,13241.4
24367,13174.7
24319,13116.2
24260.5,13068.2
24193.8,13032.5
24121.4,13010.6
24046.1,13003.1
23553.9,13003.1
23478.6,13010.6
23406.2,13032.5
23339.5,13068.2
23281,13116.2
23233,13174.7
23197.3,13241.4
23175.3,13313.9
23167.9,13389.2
23167.9,13753.3
23175.3,13828.7
23197.3,13901.1
23233,13967.8
23281,14026.3
23339.5,14074.3
23406.2,14110
23478.6,14132
23553.9,14139.4
23740.6,14139.4
24094.5,14493.2
24094.5,16651
24046.1,16646.3
23553.9,16646.3
23478.6,16653.7
23406.2,16675.6
23339.5,16711.3
23281,16759.3
23275.1,16766.5
23259.4,16714.9
23232.8,16665.2
23197.1,16621.6
23155.8,16587.8
23171.1,16569.1
23232.5,16454.3
23270.4,16329.6
23283.1,16200
23270.4,16070.4
23232.5,15945.7
23171.1,15830.9
23088.5,15730.2
23020.4,15674.3
23065.1,15636.8
23141.7,15541.3
23198.3,15432.7
23226.2,15346.8
23179,15250
22650,15250
22650,15257.9
22550,15257.9
22550,15250
22542.1,15250
22542.1,15150
22550,15150
22550,14638.8
22650,14638.8
22650,15150
23179,15150
23226.2,15053.2
23198.3,14967.3
23141.7,14858.7
23065.1,14763.2
22971.3,14684.5
22864,14625.6
22747.2,14588.8
22650,14638.8
22550,14638.8
22452.8,14588.8
22336,14625.6
22256.3,14669.4
22256.3,13062.6
22993.7,13062.6
23049.8,13057.1
23103.8,13040.7
23153.5,13014.1
23197.1,12978.4
23232.8,12934.8
23259.4,12885.1
23271.9,12844
23281,12855.1
23339.5,12903.1
23406.2,12938.7
23478.6,12960.7
23553.9,12968.1
24046.1,12968.1
24121.4,12960.7
24193.8,12938.7
24260.5,12903.1
24319,12855.1
24367,12796.6
24402.7,12729.8
24424.7,12657.4
24432.1,12582.1
24432.1,12217.9
24424.7,12142.6
24402.7,12070.2
24367,12003.4
24319,11944.9
24260.5,11896.9
24193.8,11861.3
24121.4,11839.3
24046.1,11831.9
23763.4,11831.9
23837.4,11771.2
23837.4,11771.2
23874.6,11725.9
23902.6,11691.7
23941.7,11618.7
23951.2,11600.9
23981,11502.4
23988.6,11425.7
23988.6,11425.7
23991.1,11400
23988.6,11374.3
23988.6,8772.12
23991.1,8746.46
23988.6,8720.8
23988.6,8720.8
23981,8644.04
23951.2,8545.56
23944.9,8533.85
23902.6,8454.8
23853.7,8395.18
23853.7,8395.18
23837.4,8375.25
23817.4,8358.89
22500.2,7041.64
22483.8,7021.7
22404.3,6956.42
22313.5,6907.91
22215,6878.03
22138.3,6870.47
22138.3,6870.47
22112.6,6867.94
22086.9,6870.47
20038.3,6870.47
20012.6,6867.94
19986.9,6870.47
19986.9,6870.47
19910.2,6878.03
19811.7,6907.91
19720.9,6956.42
19661.3,7005.35
19641.4,7021.7
19625,7041.64
17648.7,9017.94
17628.8,9034.3
17598.1,9071.66
17563.5,9113.85
17529.3,9177.9
17515,9204.61
17485.1,9303.1
17477.6,9379.85
17477.6,9379.85
17475,9405.51
17477.6,9431.17
17477.6,10877.6
16122.4,10877.6
16122.4,9305.97
16125,9280.31
16122.4,9254.66
16122.4,9254.65
16114.9,9177.9
16085,9079.42
16080.9,9071.66
16036.5,8988.66
15987.6,8929.04
15987.6,8929.04
15971.2,8909.11
15951.3,8892.75
14100.2,7041.64
14083.8,7021.7
14004.3,6956.42
13913.5,6907.91
13815,6878.03
13738.3,6870.47
13738.3,6870.47
13712.6,6867.94
13686.9,6870.47
11638.3,6870.47
11612.6,6867.94
11586.9,6870.47
11586.9,6870.47
11510.2,6878.03
11411.7,6907.91
11320.9,6956.42
11261.3,7005.35
11241.4,7021.7
11225,7041.64
9582.58,8684.09
9562.65,8700.45
9546.29,8720.38
9546.29,8720.38
9497.36,8780
9448.85,8870.76
9418.97,8969.24
9408.89,9071.66
9411.41,9097.32
9411.41,10534.6
7880.61,12065.4
7860.67,12081.8
7844.31,12101.7
7795.39,12161.3
7751.34,12243.8
7746.87,12252.1
7717,12350.6
7709.44,12427.3
7709.44,12427.3
7706.91,12453
7069.75,12453
7099.76,6150
25799.8,6150
Z" /> 
<path style="fill:#000000; fill-opacity:1.0; 
stroke:#000000; stroke-width:100; stroke-opacity:1; 
stroke-linecap:round; stroke-linejoin:round;fill-rule:evenodd;"
d="M 17481,11959.3
17433,12017.8
17397.3,12084.6
17375.3,12157
17367.9,12232.3
17367.9,12596.5
17375.3,12671.8
17397.3,12744.2
17433,12810.9
17481,12869.4
17539.5,12917.4
17606.2,12953.1
17678.6,12975.1
17753.9,12982.5
18246.1,12982.5
18321.4,12975.1
18393.8,12953.1
18460.5,12917.4
18519,12869.4
18531.3,12854.5
18540.6,12885.1
18567.2,12934.8
18602.9,12978.4
18646.5,13014.1
18696.2,13040.7
18750.2,13057.1
18806.3,13062.6
19543.7,13062.6
19543.7,14669.4
19464,14625.6
19347.2,14588.8
19250,14638.8
19250,15150
19257.9,15150
19257.9,15250
19250,15250
19250,15257.9
19150,15257.9
19150,15250
18621,15250
18573.8,15346.8
18601.7,15432.7
18658.3,15541.3
18734.9,15636.8
18779.6,15674.3
18711.5,15730.2
18628.9,15830.9
18567.5,15945.7
18529.6,16070.4
18516.9,16200
18529.6,16329.6
18567.5,16454.3
18628.9,16569.1
18644.2,16587.8
18602.9,16621.6
18567.2,16665.2
18540.6,16714.9
18524.9,16766.5
18519,16759.3
18460.5,16711.3
18393.8,16675.6
18321.4,16653.7
18246.1,16646.3
17753.9,16646.3
17678.6,16653.7
17643.7,16664.3
17643.7,15053.2
18573.8,15053.2
18621,15150
19150,15150
19150,14638.8
19052.8,14588.8
18936,14625.6
18828.7,14684.5
18734.9,14763.2
18658.3,14858.7
18601.7,14967.3
18573.8,15053.2
17643.7,15053.2
17643.7,14569.4
18059.4,14153.7
18246.1,14153.7
18321.4,14146.3
18393.8,14124.4
18460.5,14088.7
18519,14040.7
18567,13982.2
18602.7,13915.4
18624.7,13843
18632.1,13767.7
18632.1,13403.5
18624.7,13328.2
18602.7,13255.8
18567,13189.1
18519,13130.6
18460.5,13082.6
18393.8,13046.9
18321.4,13024.9
18246.1,13017.5
17753.9,13017.5
17678.6,13024.9
17606.2,13046.9
17539.5,13082.6
17481,13130.6
17433,13189.1
17397.3,13255.8
17375.3,13328.2
17367.9,13403.5
17367.9,13590.2
16901.7,14056.5
16884.7,14070.4
16870.8,14087.3
16870.8,14087.3
16829.3,14137.9
16788.1,14215
16762.7,14298.6
16754.2,14385.6
16756.3,14407.4
16756.3,19793.5
16733,19816.8
16700,19866.2
16667,19816.8
16643.7,19793.5
16643.7,14407.4
16645.8,14385.6
16643.7,14363.8
16643.7,14363.8
16637.3,14298.6
16611.9,14215
16570.7,14137.9
16547.8,14110
16529.2,14087.3
16529.2,14087.3
16515.3,14070.4
16498.3,14056.5
16032.1,13590.2
16032.1,13403.5
16024.7,13328.2
16002.7,13255.8
15967,13189.1
15919,13130.6
15860.5,13082.6
15793.8,13046.9
15721.4,13024.9
15646.1,13017.5
15153.9,13017.5
15078.6,13024.9
15006.2,13046.9
14939.5,13082.6
14881,13130.6
14833,13189.1
14797.3,13255.8
14775.3,13328.2
14767.9,13403.5
14767.9,13767.7
14775.3,13843
14797.3,13915.4
14833,13982.2
14881,14040.7
14939.5,14088.7
15006.2,14124.4
15078.6,14146.3
15153.9,14153.7
15340.6,14153.7
15756.3,14569.4
15756.3,16664.3
15721.4,16653.7
15646.1,16646.3
15153.9,16646.3
15078.6,16653.7
15006.2,16675.6
14939.5,16711.3
14881,16759.3
14875.1,16766.5
14859.4,16714.9
14832.8,16665.2
14797.1,16621.6
14755.8,16587.8
14771.1,16569.1
14832.5,16454.3
14870.4,16329.6
14883.1,16200
14870.4,16070.4
14832.5,15945.7
14771.1,15830.9
14688.5,15730.2
14620.4,15674.3
14665.1,15636.8
14741.7,15541.3
14798.3,15432.7
14826.2,15346.8
14779,15250
14250,15250
14250,15257.9
14150,15257.9
14150,15250
14142.1,15250
14142.1,15150
14150,15150
14150,14638.8
14250,14638.8
14250,15150
14779,15150
14826.2,15053.2
14798.3,14967.3
14741.7,14858.7
14665.1,14763.2
14571.3,14684.5
14464,14625.6
14347.2,14588.8
14250,14638.8
14150,14638.8
14052.8,14588.8
13936,14625.6
13856.3,14669.4
13856.3,13062.6
14593.7,13062.6
14649.8,13057.1
14703.8,13040.7
14753.5,13014.1
14797.1,12978.4
14832.8,12934.8
14859.4,12885.1
14868.7,12854.5
14881,12869.4
14939.5,12917.4
15006.2,12953.1
15078.6,12975.1
15153.9,12982.5
15646.1,12982.5
15721.4,12975.1
15793.8,12953.1
15860.5,12917.4
15919,12869.4
15967,12810.9
16002.7,12744.2
16024.7,12671.8
16032.1,12596.5
16032.1,12232.3
16024.7,12157
16002.7,12084.6
15967,12017.8
15919,11959.3
15874.1,11922.4
17525.9,11922.4
Z" /> 
<path style="fill:#000000; fill-opacity:1.0; 
stroke:#000000; stroke-width:100; stroke-opacity:1; 
stroke-linecap:round; stroke-linejoin:round;fill-rule:evenodd;"
d="M 8967.91,12596.5
8975.32,12671.8
8997.29,12744.2
9032.96,12810.9
9080.97,12869.4
9139.47,12917.4
9206.21,12953.1
9278.63,12975.1
9353.94,12982.5
9846.06,12982.5
9921.37,12975.1
9993.79,12953.1
10060.5,12917.4
10119,12869.4
10131.3,12854.5
10140.6,12885.1
10167.2,12934.8
10202.9,12978.4
10246.5,13014.1
10296.2,13040.7
10350.2,13057.1
10406.3,13062.6
11143.7,13062.6
11143.7,14669.4
11064,14625.6
10947.2,14588.8
10850,14638.8
10850,15150
10857.9,15150
10857.9,15250
10850,15250
10850,15257.9
10750,15257.9
10750,15250
10221,15250
10173.8,15346.8
10201.7,15432.7
10258.3,15541.3
10334.9,15636.8
10379.6,15674.3
10311.5,15730.2
10228.9,15830.9
10167.5,15945.7
10129.6,16070.4
10116.9,16200
10129.6,16329.6
10167.5,16454.3
10228.9,16569.1
10244.2,16587.8
10202.9,16621.6
10167.2,16665.2
10140.6,16714.9
10128.1,16756
10119,16744.9
10060.5,16696.9
9993.79,16661.3
9921.37,16639.3
9846.06,16631.9
9353.94,16631.9
9305.51,16636.7
9305.51,15053.2
10173.8,15053.2
10221,15150
10750,15150
10750,14638.8
10652.8,14588.8
10536,14625.6
10428.7,14684.5
10334.9,14763.2
10258.3,14858.7
10201.7,14967.3
10173.8,15053.2
9305.51,15053.2
9305.51,14507.6
9659.37,14153.7
9846.06,14153.7
9921.37,14146.3
9993.79,14124.4
10060.5,14088.7
10119,14040.7
10167,13982.2
10202.7,13915.4
10224.7,13843
10232.1,13767.7
10232.1,13403.5
10224.7,13328.2
10202.7,13255.8
10167,13189.1
10119,13130.6
10060.5,13082.6
9993.79,13046.9
9921.37,13024.9
9846.06,13017.5
9353.94,13017.5
9278.63,13024.9
9206.21,13046.9
9139.47,13082.6
9080.97,13130.6
9032.96,13189.1
8997.29,13255.8
8975.32,13328.2
8967.91,13403.5
8967.91,13590.2
8754.32,13803.8
8754.32,12669.4
8967.91,12455.8
Z" /> 
</g>
</g> 
</svg>
