<?xml version="1.0" standalone="no"?>
 <!DOCTYPE svg PUBLIC "-//W3C//DTD SVG 1.1//EN" 
 "http://www.w3.org/Graphics/SVG/1.1/DTD/svg11.dtd"> 
<svg
  xmlns:svg="http://www.w3.org/2000/svg"
  xmlns="http://www.w3.org/2000/svg"
  xmlns:xlink="http://www.w3.org/1999/xlink"
  version="1.1"
  width="29.700220cm" height="21.000720cm" viewBox="0 0 116930 82680">
<title>SVG Picture created as mostek-F_Cu.svg date 2020/10/21 14:31:30 </title>
  <desc>Picture generated by PCBNEW </desc>
<g style="fill:#000000; fill-opacity:1;stroke:#000000; stroke-opacity:1;
stroke-linecap:round; stroke-linejoin:round;"
 transform="translate(0 0) scale(1 1)">
</g>
<g style="fill:#000000; fill-opacity:0.0; 
stroke:#000000; stroke-width:-0.000393701; stroke-opacity:1; 
stroke-linecap:round; stroke-linejoin:round;">
<g >
</g>
<g style="fill:#000000; fill-opacity:0.0; 
stroke:#000000; stroke-width:669.291; stroke-opacity:1; 
stroke-linecap:round; stroke-linejoin:round;">
<path d="M101730 8000
L101730 8000
" />
<path d="M100730 8000
L100730 8000
" />
<path d="M99730 8000
L99730 8000
" />
</g>
<g style="fill:#000000; fill-opacity:0.0; 
stroke:#000000; stroke-width:0; stroke-opacity:1; 
stroke-linecap:round; stroke-linejoin:round;">
</g>
<g style="fill:#000000; fill-opacity:1.0; 
stroke:#000000; stroke-width:0; stroke-opacity:1; 
stroke-linecap:round; stroke-linejoin:round;">
<path style="fill:#000000; fill-opacity:1.0; 
stroke:#000000; stroke-width:0; stroke-opacity:1; 
stroke-linecap:round; stroke-linejoin:round;fill-rule:evenodd;"
d="M 98395.4,8334.65
99064.6,8334.65
99064.6,7665.35
98395.4,7665.35
Z" /> 
</g>
<g >
</g>
<g style="fill:#000000; fill-opacity:1.0; 
stroke:#000000; stroke-width:0; stroke-opacity:1; 
stroke-linecap:round; stroke-linejoin:round;">
</g>
<g style="fill:#000000; fill-opacity:1.0; 
stroke:#000000; stroke-width:750; stroke-opacity:1; 
stroke-linecap:round; stroke-linejoin:round;">
</g>
<g style="fill:#000000; fill-opacity:0.0; 
stroke:#000000; stroke-width:750; stroke-opacity:1; 
stroke-linecap:round; stroke-linejoin:round;">
<path d="M106148 15200
L106111 15200
" />
<path d="M106148 16200
L106111 16200
" />
</g>
<g style="fill:#000000; fill-opacity:0.0; 
stroke:#000000; stroke-width:0; stroke-opacity:1; 
stroke-linecap:round; stroke-linejoin:round;">
</g>
<g style="fill:#000000; fill-opacity:1.0; 
stroke:#000000; stroke-width:0; stroke-opacity:1; 
stroke-linecap:round; stroke-linejoin:round;">
<path style="fill:#000000; fill-opacity:1.0; 
stroke:#000000; stroke-width:0; stroke-opacity:1; 
stroke-linecap:round; stroke-linejoin:round;fill-rule:evenodd;"
d="M 105736,17575
106524,17575
106524,16825
105736,16825
Z" /> 
</g>
<g >
</g>
<g style="fill:#000000; fill-opacity:1.0; 
stroke:#000000; stroke-width:0; stroke-opacity:1; 
stroke-linecap:round; stroke-linejoin:round;">
</g>
<g style="fill:#000000; fill-opacity:1.0; 
stroke:#000000; stroke-width:669.291; stroke-opacity:1; 
stroke-linecap:round; stroke-linejoin:round;">
</g>
<g style="fill:#000000; fill-opacity:0.0; 
stroke:#000000; stroke-width:669.291; stroke-opacity:1; 
stroke-linecap:round; stroke-linejoin:round;">
<path d="M102730 25400
L102730 25400
" />
<path d="M101730 25400
L101730 25400
" />
<path d="M100730 25400
L100730 25400
" />
<path d="M99730 25400
L99730 25400
" />
<path d="M98730 25400
L98730 25400
" />
<path d="M97730 25400
L97730 25400
" />
</g>
<g style="fill:#000000; fill-opacity:0.0; 
stroke:#000000; stroke-width:0; stroke-opacity:1; 
stroke-linecap:round; stroke-linejoin:round;">
</g>
<g style="fill:#000000; fill-opacity:1.0; 
stroke:#000000; stroke-width:0; stroke-opacity:1; 
stroke-linecap:round; stroke-linejoin:round;">
<path style="fill:#000000; fill-opacity:1.0; 
stroke:#000000; stroke-width:0; stroke-opacity:1; 
stroke-linecap:round; stroke-linejoin:round;fill-rule:evenodd;"
d="M 96395.4,25734.6
97064.6,25734.6
97064.6,25065.4
96395.4,25065.4
Z" /> 
</g>
<g >
</g>
<g style="fill:#000000; fill-opacity:1.0; 
stroke:#000000; stroke-width:0; stroke-opacity:1; 
stroke-linecap:round; stroke-linejoin:round;">
</g>
<g style="fill:#000000; fill-opacity:1.0; 
stroke:#000000; stroke-width:629.921; stroke-opacity:1; 
stroke-linecap:round; stroke-linejoin:round;">
</g>
<g style="fill:#000000; fill-opacity:0.0; 
stroke:#000000; stroke-width:629.921; stroke-opacity:1; 
stroke-linecap:round; stroke-linejoin:round;">
<path d="M102730 23200
L102730 23200
" />
<path d="M95730 20200
L95730 20200
" />
<path d="M101730 23200
L101730 23200
" />
<path d="M96730 20200
L96730 20200
" />
<path d="M100730 23200
L100730 23200
" />
<path d="M97730 20200
L97730 20200
" />
<path d="M99730 23200
L99730 23200
" />
<path d="M98730 20200
L98730 20200
" />
<path d="M98730 23200
L98730 23200
" />
<path d="M99730 20200
L99730 20200
" />
<path d="M97730 23200
L97730 23200
" />
<path d="M100730 20200
L100730 20200
" />
<path d="M96730 23200
L96730 23200
" />
<path d="M101730 20200
L101730 20200
" />
<path d="M95730 23200
L95730 23200
" />
</g>
<g style="fill:#000000; fill-opacity:0.0; 
stroke:#000000; stroke-width:0; stroke-opacity:1; 
stroke-linecap:round; stroke-linejoin:round;">
</g>
<g style="fill:#000000; fill-opacity:1.0; 
stroke:#000000; stroke-width:0; stroke-opacity:1; 
stroke-linecap:round; stroke-linejoin:round;">
<path style="fill:#000000; fill-opacity:1.0; 
stroke:#000000; stroke-width:0; stroke-opacity:1; 
stroke-linecap:round; stroke-linejoin:round;fill-rule:evenodd;"
d="M 103045,19885
102415,19885
102415,20515
103045,20515
Z" /> 
</g>
<g >
</g>
<g style="fill:#000000; fill-opacity:1.0; 
stroke:#000000; stroke-width:0; stroke-opacity:1; 
stroke-linecap:round; stroke-linejoin:round;">
<path style="fill:#000000; fill-opacity:1.0; 
stroke:#000000; stroke-width:0; stroke-opacity:1; 
stroke-linecap:round; stroke-linejoin:round;fill-rule:evenodd;"
d="M 92874.3,13291.2
92864.7,13292.6
92855.4,13295
92846.3,13298.2
92837.5,13302.4
92829.3,13307.3
92821.5,13313.1
92814.3,13319.6
92807.9,13326.7
92802.1,13334.5
92797.1,13342.8
92793,13351.5
92789.8,13360.6
92787.4,13370
92786,13379.5
92785.5,13389.2
92785.5,13753.3
92786,13763
92787.4,13772.5
92789.8,13781.9
92793,13791
92797.1,13799.7
92802.1,13808
92807.9,13815.8
92814.3,13822.9
92821.5,13829.4
92829.3,13835.2
92837.5,13840.1
92846.3,13844.3
92855.4,13847.5
92864.7,13849.9
92874.3,13851.3
92883.9,13851.8
93376.1,13851.8
93385.7,13851.3
93395.3,13849.9
93404.6,13847.5
93413.7,13844.3
93422.5,13840.1
93430.7,13835.2
93438.5,13829.4
93445.7,13822.9
93452.1,13815.8
93457.9,13808
93462.9,13799.7
93467,13791
93470.2,13781.9
93472.6,13772.5
93474,13763
93474.5,13753.3
93474.5,13389.2
93474,13379.5
93472.6,13370
93470.2,13360.6
93467,13351.5
93462.9,13342.8
93457.9,13334.5
93452.1,13326.7
93445.7,13319.6
93438.5,13313.1
93430.7,13307.3
93422.5,13302.4
93413.7,13298.2
93404.6,13295
93395.3,13292.6
93385.7,13291.2
93376.1,13290.7
92883.9,13290.7
Z" /> 
<path style="fill:#000000; fill-opacity:1.0; 
stroke:#000000; stroke-width:0; stroke-opacity:1; 
stroke-linecap:round; stroke-linejoin:round;fill-rule:evenodd;"
d="M 92874.3,12120
92864.7,12121.4
92855.4,12123.7
92846.3,12127
92837.5,12131.1
92829.3,12136.1
92821.5,12141.8
92814.3,12148.3
92807.9,12155.5
92802.1,12163.2
92797.1,12171.5
92793,12180.2
92789.8,12189.3
92787.4,12198.7
92786,12208.3
92785.5,12217.9
92785.5,12582.1
92786,12591.7
92787.4,12601.3
92789.8,12610.7
92793,12619.8
92797.1,12628.5
92802.1,12636.8
92807.9,12644.5
92814.3,12651.7
92821.5,12658.2
92829.3,12663.9
92837.5,12668.9
92846.3,12673
92855.4,12676.3
92864.7,12678.6
92874.3,12680
92883.9,12680.5
93376.1,12680.5
93385.7,12680
93395.3,12678.6
93404.6,12676.3
93413.7,12673
93422.5,12668.9
93430.7,12663.9
93438.5,12658.2
93445.7,12651.7
93452.1,12644.5
93457.9,12636.8
93462.9,12628.5
93467,12619.8
93470.2,12610.7
93472.6,12601.3
93474,12591.7
93474.5,12582.1
93474.5,12217.9
93474,12208.3
93472.6,12198.7
93470.2,12189.3
93467,12180.2
93462.9,12171.5
93457.9,12163.2
93452.1,12155.5
93445.7,12148.3
93438.5,12141.8
93430.7,12136.1
93422.5,12131.1
93413.7,12127
93404.6,12123.7
93395.3,12121.4
93385.7,12120
93376.1,12119.5
92883.9,12119.5
Z" /> 
</g>
<g >
</g>
<g style="fill:#000000; fill-opacity:1.0; 
stroke:#000000; stroke-width:0; stroke-opacity:1; 
stroke-linecap:round; stroke-linejoin:round;">
<path style="fill:#000000; fill-opacity:1.0; 
stroke:#000000; stroke-width:0; stroke-opacity:1; 
stroke-linecap:round; stroke-linejoin:round;fill-rule:evenodd;"
d="M 92874.3,18105.6
92864.7,18107
92855.4,18109.4
92846.3,18112.6
92837.5,18116.7
92829.3,18121.7
92821.5,18127.5
92814.3,18133.9
92807.9,18141.1
92802.1,18148.9
92797.1,18157.1
92793,18165.9
92789.8,18175
92787.4,18184.3
92786,18193.9
92785.5,18203.5
92785.5,18567.7
92786,18577.4
92787.4,18586.9
92789.8,18596.3
92793,18605.4
92797.1,18614.1
92802.1,18622.4
92807.9,18630.2
92814.3,18637.3
92821.5,18643.8
92829.3,18649.6
92837.5,18654.5
92846.3,18658.6
92855.4,18661.9
92864.7,18664.3
92874.3,18665.7
92883.9,18666.1
93376.1,18666.1
93385.7,18665.7
93395.3,18664.3
93404.6,18661.9
93413.7,18658.6
93422.5,18654.5
93430.7,18649.6
93438.5,18643.8
93445.7,18637.3
93452.1,18630.2
93457.9,18622.4
93462.9,18614.1
93467,18605.4
93470.2,18596.3
93472.6,18586.9
93474,18577.4
93474.5,18567.7
93474.5,18203.5
93474,18193.9
93472.6,18184.3
93470.2,18175
93467,18165.9
93462.9,18157.1
93457.9,18148.9
93452.1,18141.1
93445.7,18133.9
93438.5,18127.5
93430.7,18121.7
93422.5,18116.7
93413.7,18112.6
93404.6,18109.4
93395.3,18107
93385.7,18105.6
93376.1,18105.1
92883.9,18105.1
Z" /> 
<path style="fill:#000000; fill-opacity:1.0; 
stroke:#000000; stroke-width:0; stroke-opacity:1; 
stroke-linecap:round; stroke-linejoin:round;fill-rule:evenodd;"
d="M 92874.3,16934.3
92864.7,16935.7
92855.4,16938.1
92846.3,16941.4
92837.5,16945.5
92829.3,16950.4
92821.5,16956.2
92814.3,16962.7
92807.9,16969.8
92802.1,16977.6
92797.1,16985.9
92793,16994.6
92789.8,17003.7
92787.4,17013.1
92786,17022.6
92785.5,17032.3
92785.5,17396.5
92786,17406.1
92787.4,17415.7
92789.8,17425
92793,17434.1
92797.1,17442.9
92802.1,17451.1
92807.9,17458.9
92814.3,17466.1
92821.5,17472.5
92829.3,17478.3
92837.5,17483.3
92846.3,17487.4
92855.4,17490.6
92864.7,17493
92874.3,17494.4
92883.9,17494.9
93376.1,17494.9
93385.7,17494.4
93395.3,17493
93404.6,17490.6
93413.7,17487.4
93422.5,17483.3
93430.7,17478.3
93438.5,17472.5
93445.7,17466.1
93452.1,17458.9
93457.9,17451.1
93462.9,17442.9
93467,17434.1
93470.2,17425
93472.6,17415.7
93474,17406.1
93474.5,17396.5
93474.5,17032.3
93474,17022.6
93472.6,17013.1
93470.2,17003.7
93467,16994.6
93462.9,16985.9
93457.9,16977.6
93452.1,16969.8
93445.7,16962.7
93438.5,16956.2
93430.7,16950.4
93422.5,16945.5
93413.7,16941.4
93404.6,16938.1
93395.3,16935.7
93385.7,16934.3
93376.1,16933.9
92883.9,16933.9
Z" /> 
</g>
<g >
</g>
<g style="fill:#000000; fill-opacity:1.0; 
stroke:#000000; stroke-width:0; stroke-opacity:1; 
stroke-linecap:round; stroke-linejoin:round;">
<path style="fill:#000000; fill-opacity:1.0; 
stroke:#000000; stroke-width:0; stroke-opacity:1; 
stroke-linecap:round; stroke-linejoin:round;fill-rule:evenodd;"
d="M 98674.3,18105.6
98664.7,18107
98655.4,18109.4
98646.3,18112.6
98637.5,18116.7
98629.3,18121.7
98621.5,18127.5
98614.3,18133.9
98607.9,18141.1
98602.1,18148.9
98597.1,18157.1
98593,18165.9
98589.8,18175
98587.4,18184.3
98586,18193.9
98585.5,18203.5
98585.5,18567.7
98586,18577.4
98587.4,18586.9
98589.8,18596.3
98593,18605.4
98597.1,18614.1
98602.1,18622.4
98607.9,18630.2
98614.3,18637.3
98621.5,18643.8
98629.3,18649.6
98637.5,18654.5
98646.3,18658.6
98655.4,18661.9
98664.7,18664.3
98674.3,18665.7
98683.9,18666.1
99176.1,18666.1
99185.7,18665.7
99195.3,18664.3
99204.6,18661.9
99213.7,18658.6
99222.5,18654.5
99230.7,18649.6
99238.5,18643.8
99245.7,18637.3
99252.1,18630.2
99257.9,18622.4
99262.9,18614.1
99267,18605.4
99270.2,18596.3
99272.6,18586.9
99274,18577.4
99274.5,18567.7
99274.5,18203.5
99274,18193.9
99272.6,18184.3
99270.2,18175
99267,18165.9
99262.9,18157.1
99257.9,18148.9
99252.1,18141.1
99245.7,18133.9
99238.5,18127.5
99230.7,18121.7
99222.5,18116.7
99213.7,18112.6
99204.6,18109.4
99195.3,18107
99185.7,18105.6
99176.1,18105.1
98683.9,18105.1
Z" /> 
<path style="fill:#000000; fill-opacity:1.0; 
stroke:#000000; stroke-width:0; stroke-opacity:1; 
stroke-linecap:round; stroke-linejoin:round;fill-rule:evenodd;"
d="M 98674.3,16934.3
98664.7,16935.7
98655.4,16938.1
98646.3,16941.4
98637.5,16945.5
98629.3,16950.4
98621.5,16956.2
98614.3,16962.7
98607.9,16969.8
98602.1,16977.6
98597.1,16985.9
98593,16994.6
98589.8,17003.7
98587.4,17013.1
98586,17022.6
98585.5,17032.3
98585.5,17396.5
98586,17406.1
98587.4,17415.7
98589.8,17425
98593,17434.1
98597.1,17442.9
98602.1,17451.1
98607.9,17458.9
98614.3,17466.1
98621.5,17472.5
98629.3,17478.3
98637.5,17483.3
98646.3,17487.4
98655.4,17490.6
98664.7,17493
98674.3,17494.4
98683.9,17494.9
99176.1,17494.9
99185.7,17494.4
99195.3,17493
99204.6,17490.6
99213.7,17487.4
99222.5,17483.3
99230.7,17478.3
99238.5,17472.5
99245.7,17466.1
99252.1,17458.9
99257.9,17451.1
99262.9,17442.9
99267,17434.1
99270.2,17425
99272.6,17415.7
99274,17406.1
99274.5,17396.5
99274.5,17032.3
99274,17022.6
99272.6,17013.1
99270.2,17003.7
99267,16994.6
99262.9,16985.9
99257.9,16977.6
99252.1,16969.8
99245.7,16962.7
99238.5,16956.2
99230.7,16950.4
99222.5,16945.5
99213.7,16941.4
99204.6,16938.1
99195.3,16935.7
99185.7,16934.3
99176.1,16933.9
98683.9,16933.9
Z" /> 
</g>
<g >
</g>
<g style="fill:#000000; fill-opacity:1.0; 
stroke:#000000; stroke-width:0; stroke-opacity:1; 
stroke-linecap:round; stroke-linejoin:round;">
<path style="fill:#000000; fill-opacity:1.0; 
stroke:#000000; stroke-width:0; stroke-opacity:1; 
stroke-linecap:round; stroke-linejoin:round;fill-rule:evenodd;"
d="M 98674.3,13305.6
98664.7,13307
98655.4,13309.4
98646.3,13312.6
98637.5,13316.7
98629.3,13321.7
98621.5,13327.5
98614.3,13333.9
98607.9,13341.1
98602.1,13348.9
98597.1,13357.1
98593,13365.9
98589.8,13375
98587.4,13384.3
98586,13393.9
98585.5,13403.5
98585.5,13767.7
98586,13777.4
98587.4,13786.9
98589.8,13796.3
98593,13805.4
98597.1,13814.1
98602.1,13822.4
98607.9,13830.2
98614.3,13837.3
98621.5,13843.8
98629.3,13849.6
98637.5,13854.5
98646.3,13858.6
98655.4,13861.9
98664.7,13864.3
98674.3,13865.7
98683.9,13866.1
99176.1,13866.1
99185.7,13865.7
99195.3,13864.3
99204.6,13861.9
99213.7,13858.6
99222.5,13854.5
99230.7,13849.6
99238.5,13843.8
99245.7,13837.3
99252.1,13830.2
99257.9,13822.4
99262.9,13814.1
99267,13805.4
99270.2,13796.3
99272.6,13786.9
99274,13777.4
99274.5,13767.7
99274.5,13403.5
99274,13393.9
99272.6,13384.3
99270.2,13375
99267,13365.9
99262.9,13357.1
99257.9,13348.9
99252.1,13341.1
99245.7,13333.9
99238.5,13327.5
99230.7,13321.7
99222.5,13316.7
99213.7,13312.6
99204.6,13309.4
99195.3,13307
99185.7,13305.6
99176.1,13305.1
98683.9,13305.1
Z" /> 
<path style="fill:#000000; fill-opacity:1.0; 
stroke:#000000; stroke-width:0; stroke-opacity:1; 
stroke-linecap:round; stroke-linejoin:round;fill-rule:evenodd;"
d="M 98674.3,12134.3
98664.7,12135.7
98655.4,12138.1
98646.3,12141.4
98637.5,12145.5
98629.3,12150.4
98621.5,12156.2
98614.3,12162.7
98607.9,12169.8
98602.1,12177.6
98597.1,12185.9
98593,12194.6
98589.8,12203.7
98587.4,12213.1
98586,12222.6
98585.5,12232.3
98585.5,12596.5
98586,12606.1
98587.4,12615.7
98589.8,12625
98593,12634.1
98597.1,12642.9
98602.1,12651.1
98607.9,12658.9
98614.3,12666.1
98621.5,12672.5
98629.3,12678.3
98637.5,12683.3
98646.3,12687.4
98655.4,12690.6
98664.7,12693
98674.3,12694.4
98683.9,12694.9
99176.1,12694.9
99185.7,12694.4
99195.3,12693
99204.6,12690.6
99213.7,12687.4
99222.5,12683.3
99230.7,12678.3
99238.5,12672.5
99245.7,12666.1
99252.1,12658.9
99257.9,12651.1
99262.9,12642.9
99267,12634.1
99270.2,12625
99272.6,12615.7
99274,12606.1
99274.5,12596.5
99274.5,12232.3
99274,12222.6
99272.6,12213.1
99270.2,12203.7
99267,12194.6
99262.9,12185.9
99257.9,12177.6
99252.1,12169.8
99245.7,12162.7
99238.5,12156.2
99230.7,12150.4
99222.5,12145.5
99213.7,12141.4
99204.6,12138.1
99195.3,12135.7
99185.7,12134.3
99176.1,12133.9
98683.9,12133.9
Z" /> 
</g>
<g >
</g>
<g style="fill:#000000; fill-opacity:1.0; 
stroke:#000000; stroke-width:0; stroke-opacity:1; 
stroke-linecap:round; stroke-linejoin:round;">
<path style="fill:#000000; fill-opacity:1.0; 
stroke:#000000; stroke-width:0; stroke-opacity:1; 
stroke-linecap:round; stroke-linejoin:round;fill-rule:evenodd;"
d="M 101274,13305.6
101265,13307
101255,13309.4
101246,13312.6
101238,13316.7
101229,13321.7
101221,13327.5
101214,13333.9
101208,13341.1
101202,13348.9
101197,13357.1
101193,13365.9
101190,13375
101187,13384.3
101186,13393.9
101186,13403.5
101186,13767.7
101186,13777.4
101187,13786.9
101190,13796.3
101193,13805.4
101197,13814.1
101202,13822.4
101208,13830.2
101214,13837.3
101221,13843.8
101229,13849.6
101238,13854.5
101246,13858.6
101255,13861.9
101265,13864.3
101274,13865.7
101284,13866.1
101776,13866.1
101786,13865.7
101795,13864.3
101805,13861.9
101814,13858.6
101822,13854.5
101831,13849.6
101839,13843.8
101846,13837.3
101852,13830.2
101858,13822.4
101863,13814.1
101867,13805.4
101870,13796.3
101873,13786.9
101874,13777.4
101874,13767.7
101874,13403.5
101874,13393.9
101873,13384.3
101870,13375
101867,13365.9
101863,13357.1
101858,13348.9
101852,13341.1
101846,13333.9
101839,13327.5
101831,13321.7
101822,13316.7
101814,13312.6
101805,13309.4
101795,13307
101786,13305.6
101776,13305.1
101284,13305.1
Z" /> 
<path style="fill:#000000; fill-opacity:1.0; 
stroke:#000000; stroke-width:0; stroke-opacity:1; 
stroke-linecap:round; stroke-linejoin:round;fill-rule:evenodd;"
d="M 101274,12134.3
101265,12135.7
101255,12138.1
101246,12141.4
101238,12145.5
101229,12150.4
101221,12156.2
101214,12162.7
101208,12169.8
101202,12177.6
101197,12185.9
101193,12194.6
101190,12203.7
101187,12213.1
101186,12222.6
101186,12232.3
101186,12596.5
101186,12606.1
101187,12615.7
101190,12625
101193,12634.1
101197,12642.9
101202,12651.1
101208,12658.9
101214,12666.1
101221,12672.5
101229,12678.3
101238,12683.3
101246,12687.4
101255,12690.6
101265,12693
101274,12694.4
101284,12694.9
101776,12694.9
101786,12694.4
101795,12693
101805,12690.6
101814,12687.4
101822,12683.3
101831,12678.3
101839,12672.5
101846,12666.1
101852,12658.9
101858,12651.1
101863,12642.9
101867,12634.1
101870,12625
101873,12615.7
101874,12606.1
101874,12596.5
101874,12232.3
101874,12222.6
101873,12213.1
101870,12203.7
101867,12194.6
101863,12185.9
101858,12177.6
101852,12169.8
101846,12162.7
101839,12156.2
101831,12150.4
101822,12145.5
101814,12141.4
101805,12138.1
101795,12135.7
101786,12134.3
101776,12133.9
101284,12133.9
Z" /> 
</g>
<g >
</g>
<g style="fill:#000000; fill-opacity:1.0; 
stroke:#000000; stroke-width:0; stroke-opacity:1; 
stroke-linecap:round; stroke-linejoin:round;">
<path style="fill:#000000; fill-opacity:1.0; 
stroke:#000000; stroke-width:0; stroke-opacity:1; 
stroke-linecap:round; stroke-linejoin:round;fill-rule:evenodd;"
d="M 101274,18105.6
101265,18107
101255,18109.4
101246,18112.6
101238,18116.7
101229,18121.7
101221,18127.5
101214,18133.9
101208,18141.1
101202,18148.9
101197,18157.1
101193,18165.9
101190,18175
101187,18184.3
101186,18193.9
101186,18203.5
101186,18567.7
101186,18577.4
101187,18586.9
101190,18596.3
101193,18605.4
101197,18614.1
101202,18622.4
101208,18630.2
101214,18637.3
101221,18643.8
101229,18649.6
101238,18654.5
101246,18658.6
101255,18661.9
101265,18664.3
101274,18665.7
101284,18666.1
101776,18666.1
101786,18665.7
101795,18664.3
101805,18661.9
101814,18658.6
101822,18654.5
101831,18649.6
101839,18643.8
101846,18637.3
101852,18630.2
101858,18622.4
101863,18614.1
101867,18605.4
101870,18596.3
101873,18586.9
101874,18577.4
101874,18567.7
101874,18203.5
101874,18193.9
101873,18184.3
101870,18175
101867,18165.9
101863,18157.1
101858,18148.9
101852,18141.1
101846,18133.9
101839,18127.5
101831,18121.7
101822,18116.7
101814,18112.6
101805,18109.4
101795,18107
101786,18105.6
101776,18105.1
101284,18105.1
Z" /> 
<path style="fill:#000000; fill-opacity:1.0; 
stroke:#000000; stroke-width:0; stroke-opacity:1; 
stroke-linecap:round; stroke-linejoin:round;fill-rule:evenodd;"
d="M 101274,16934.3
101265,16935.7
101255,16938.1
101246,16941.4
101238,16945.5
101229,16950.4
101221,16956.2
101214,16962.7
101208,16969.8
101202,16977.6
101197,16985.9
101193,16994.6
101190,17003.7
101187,17013.1
101186,17022.6
101186,17032.3
101186,17396.5
101186,17406.1
101187,17415.7
101190,17425
101193,17434.1
101197,17442.9
101202,17451.1
101208,17458.9
101214,17466.1
101221,17472.5
101229,17478.3
101238,17483.3
101246,17487.4
101255,17490.6
101265,17493
101274,17494.4
101284,17494.9
101776,17494.9
101786,17494.4
101795,17493
101805,17490.6
101814,17487.4
101822,17483.3
101831,17478.3
101839,17472.5
101846,17466.1
101852,17458.9
101858,17451.1
101863,17442.9
101867,17434.1
101870,17425
101873,17415.7
101874,17406.1
101874,17396.5
101874,17032.3
101874,17022.6
101873,17013.1
101870,17003.7
101867,16994.6
101863,16985.9
101858,16977.6
101852,16969.8
101846,16962.7
101839,16956.2
101831,16950.4
101822,16945.5
101814,16941.4
101805,16938.1
101795,16935.7
101786,16934.3
101776,16933.9
101284,16933.9
Z" /> 
</g>
<g >
</g>
<g style="fill:#000000; fill-opacity:1.0; 
stroke:#000000; stroke-width:0; stroke-opacity:1; 
stroke-linecap:round; stroke-linejoin:round;">
<path style="fill:#000000; fill-opacity:1.0; 
stroke:#000000; stroke-width:0; stroke-opacity:1; 
stroke-linecap:round; stroke-linejoin:round;fill-rule:evenodd;"
d="M 107074,18091.2
107065,18092.6
107055,18095
107046,18098.2
107038,18102.4
107029,18107.3
107021,18113.1
107014,18119.6
107008,18126.7
107002,18134.5
106997,18142.8
106993,18151.5
106990,18160.6
106987,18170
106986,18179.5
106986,18189.2
106986,18553.3
106986,18563
106987,18572.5
106990,18581.9
106993,18591
106997,18599.7
107002,18608
107008,18615.8
107014,18622.9
107021,18629.4
107029,18635.2
107038,18640.1
107046,18644.3
107055,18647.5
107065,18649.9
107074,18651.3
107084,18651.8
107576,18651.8
107586,18651.3
107595,18649.9
107605,18647.5
107614,18644.3
107622,18640.1
107631,18635.2
107639,18629.4
107646,18622.9
107652,18615.8
107658,18608
107663,18599.7
107667,18591
107670,18581.9
107673,18572.5
107674,18563
107674,18553.3
107674,18189.2
107674,18179.5
107673,18170
107670,18160.6
107667,18151.5
107663,18142.8
107658,18134.5
107652,18126.7
107646,18119.6
107639,18113.1
107631,18107.3
107622,18102.4
107614,18098.2
107605,18095
107595,18092.6
107586,18091.2
107576,18090.7
107084,18090.7
Z" /> 
<path style="fill:#000000; fill-opacity:1.0; 
stroke:#000000; stroke-width:0; stroke-opacity:1; 
stroke-linecap:round; stroke-linejoin:round;fill-rule:evenodd;"
d="M 107074,16920
107065,16921.4
107055,16923.7
107046,16927
107038,16931.1
107029,16936.1
107021,16941.8
107014,16948.3
107008,16955.5
107002,16963.2
106997,16971.5
106993,16980.2
106990,16989.3
106987,16998.7
106986,17008.3
106986,17017.9
106986,17382.1
106986,17391.7
106987,17401.3
106990,17410.7
106993,17419.8
106997,17428.5
107002,17436.8
107008,17444.5
107014,17451.7
107021,17458.2
107029,17463.9
107038,17468.9
107046,17473
107055,17476.3
107065,17478.6
107074,17480
107084,17480.5
107576,17480.5
107586,17480
107595,17478.6
107605,17476.3
107614,17473
107622,17468.9
107631,17463.9
107639,17458.2
107646,17451.7
107652,17444.5
107658,17436.8
107663,17428.5
107667,17419.8
107670,17410.7
107673,17401.3
107674,17391.7
107674,17382.1
107674,17017.9
107674,17008.3
107673,16998.7
107670,16989.3
107667,16980.2
107663,16971.5
107658,16963.2
107652,16955.5
107646,16948.3
107639,16941.8
107631,16936.1
107622,16931.1
107614,16927
107605,16923.7
107595,16921.4
107586,16920
107576,16919.5
107084,16919.5
Z" /> 
</g>
<g >
</g>
<g style="fill:#000000; fill-opacity:1.0; 
stroke:#000000; stroke-width:0; stroke-opacity:1; 
stroke-linecap:round; stroke-linejoin:round;">
<path style="fill:#000000; fill-opacity:1.0; 
stroke:#000000; stroke-width:0; stroke-opacity:1; 
stroke-linecap:round; stroke-linejoin:round;fill-rule:evenodd;"
d="M 107074,13305.6
107065,13307
107055,13309.4
107046,13312.6
107038,13316.7
107029,13321.7
107021,13327.5
107014,13333.9
107008,13341.1
107002,13348.9
106997,13357.1
106993,13365.9
106990,13375
106987,13384.3
106986,13393.9
106986,13403.5
106986,13767.7
106986,13777.4
106987,13786.9
106990,13796.3
106993,13805.4
106997,13814.1
107002,13822.4
107008,13830.2
107014,13837.3
107021,13843.8
107029,13849.6
107038,13854.5
107046,13858.6
107055,13861.9
107065,13864.3
107074,13865.7
107084,13866.1
107576,13866.1
107586,13865.7
107595,13864.3
107605,13861.9
107614,13858.6
107622,13854.5
107631,13849.6
107639,13843.8
107646,13837.3
107652,13830.2
107658,13822.4
107663,13814.1
107667,13805.4
107670,13796.3
107673,13786.9
107674,13777.4
107674,13767.7
107674,13403.5
107674,13393.9
107673,13384.3
107670,13375
107667,13365.9
107663,13357.1
107658,13348.9
107652,13341.1
107646,13333.9
107639,13327.5
107631,13321.7
107622,13316.7
107614,13312.6
107605,13309.4
107595,13307
107586,13305.6
107576,13305.1
107084,13305.1
Z" /> 
<path style="fill:#000000; fill-opacity:1.0; 
stroke:#000000; stroke-width:0; stroke-opacity:1; 
stroke-linecap:round; stroke-linejoin:round;fill-rule:evenodd;"
d="M 107074,12134.3
107065,12135.7
107055,12138.1
107046,12141.4
107038,12145.5
107029,12150.4
107021,12156.2
107014,12162.7
107008,12169.8
107002,12177.6
106997,12185.9
106993,12194.6
106990,12203.7
106987,12213.1
106986,12222.6
106986,12232.3
106986,12596.5
106986,12606.1
106987,12615.7
106990,12625
106993,12634.1
106997,12642.9
107002,12651.1
107008,12658.9
107014,12666.1
107021,12672.5
107029,12678.3
107038,12683.3
107046,12687.4
107055,12690.6
107065,12693
107074,12694.4
107084,12694.9
107576,12694.9
107586,12694.4
107595,12693
107605,12690.6
107614,12687.4
107622,12683.3
107631,12678.3
107639,12672.5
107646,12666.1
107652,12658.9
107658,12651.1
107663,12642.9
107667,12634.1
107670,12625
107673,12615.7
107674,12606.1
107674,12596.5
107674,12232.3
107674,12222.6
107673,12213.1
107670,12203.7
107667,12194.6
107663,12185.9
107658,12177.6
107652,12169.8
107646,12162.7
107639,12156.2
107631,12150.4
107622,12145.5
107614,12141.4
107605,12138.1
107595,12135.7
107586,12134.3
107576,12133.9
107084,12133.9
Z" /> 
</g>
<g >
</g>
<g style="fill:#000000; fill-opacity:1.0; 
stroke:#000000; stroke-width:0; stroke-opacity:1; 
stroke-linecap:round; stroke-linejoin:round;">
</g>
<g style="fill:#000000; fill-opacity:1.0; 
stroke:#000000; stroke-width:750; stroke-opacity:1; 
stroke-linecap:round; stroke-linejoin:round;">
</g>
<g style="fill:#000000; fill-opacity:0.0; 
stroke:#000000; stroke-width:750; stroke-opacity:1; 
stroke-linecap:round; stroke-linejoin:round;">
<path d="M94348 15200
L94311 15200
" />
<path d="M94348 16200
L94311 16200
" />
</g>
<g style="fill:#000000; fill-opacity:0.0; 
stroke:#000000; stroke-width:0; stroke-opacity:1; 
stroke-linecap:round; stroke-linejoin:round;">
</g>
<g style="fill:#000000; fill-opacity:1.0; 
stroke:#000000; stroke-width:0; stroke-opacity:1; 
stroke-linecap:round; stroke-linejoin:round;">
<path style="fill:#000000; fill-opacity:1.0; 
stroke:#000000; stroke-width:0; stroke-opacity:1; 
stroke-linecap:round; stroke-linejoin:round;fill-rule:evenodd;"
d="M 93936.3,17575
94723.7,17575
94723.7,16825
93936.3,16825
Z" /> 
</g>
<g >
</g>
<g style="fill:#000000; fill-opacity:1.0; 
stroke:#000000; stroke-width:0; stroke-opacity:1; 
stroke-linecap:round; stroke-linejoin:round;">
</g>
<g style="fill:#000000; fill-opacity:1.0; 
stroke:#000000; stroke-width:750; stroke-opacity:1; 
stroke-linecap:round; stroke-linejoin:round;">
</g>
<g style="fill:#000000; fill-opacity:0.0; 
stroke:#000000; stroke-width:750; stroke-opacity:1; 
stroke-linecap:round; stroke-linejoin:round;">
<path d="M94348 10400
L94311 10400
" />
<path d="M94348 11400
L94311 11400
" />
</g>
<g style="fill:#000000; fill-opacity:0.0; 
stroke:#000000; stroke-width:0; stroke-opacity:1; 
stroke-linecap:round; stroke-linejoin:round;">
</g>
<g style="fill:#000000; fill-opacity:1.0; 
stroke:#000000; stroke-width:0; stroke-opacity:1; 
stroke-linecap:round; stroke-linejoin:round;">
<path style="fill:#000000; fill-opacity:1.0; 
stroke:#000000; stroke-width:0; stroke-opacity:1; 
stroke-linecap:round; stroke-linejoin:round;fill-rule:evenodd;"
d="M 93936.3,12775
94723.7,12775
94723.7,12025
93936.3,12025
Z" /> 
</g>
<g >
</g>
<g style="fill:#000000; fill-opacity:1.0; 
stroke:#000000; stroke-width:0; stroke-opacity:1; 
stroke-linecap:round; stroke-linejoin:round;">
</g>
<g style="fill:#000000; fill-opacity:1.0; 
stroke:#000000; stroke-width:750; stroke-opacity:1; 
stroke-linecap:round; stroke-linejoin:round;">
</g>
<g style="fill:#000000; fill-opacity:0.0; 
stroke:#000000; stroke-width:750; stroke-opacity:1; 
stroke-linecap:round; stroke-linejoin:round;">
<path d="M97748 15200
L97711 15200
" />
<path d="M97748 16200
L97711 16200
" />
</g>
<g style="fill:#000000; fill-opacity:0.0; 
stroke:#000000; stroke-width:0; stroke-opacity:1; 
stroke-linecap:round; stroke-linejoin:round;">
</g>
<g style="fill:#000000; fill-opacity:1.0; 
stroke:#000000; stroke-width:0; stroke-opacity:1; 
stroke-linecap:round; stroke-linejoin:round;">
<path style="fill:#000000; fill-opacity:1.0; 
stroke:#000000; stroke-width:0; stroke-opacity:1; 
stroke-linecap:round; stroke-linejoin:round;fill-rule:evenodd;"
d="M 97336.3,17575
98123.7,17575
98123.7,16825
97336.3,16825
Z" /> 
</g>
<g >
</g>
<g style="fill:#000000; fill-opacity:1.0; 
stroke:#000000; stroke-width:0; stroke-opacity:1; 
stroke-linecap:round; stroke-linejoin:round;">
</g>
<g style="fill:#000000; fill-opacity:1.0; 
stroke:#000000; stroke-width:750; stroke-opacity:1; 
stroke-linecap:round; stroke-linejoin:round;">
</g>
<g style="fill:#000000; fill-opacity:0.0; 
stroke:#000000; stroke-width:750; stroke-opacity:1; 
stroke-linecap:round; stroke-linejoin:round;">
<path d="M97748 10400
L97711 10400
" />
<path d="M97748 11400
L97711 11400
" />
</g>
<g style="fill:#000000; fill-opacity:0.0; 
stroke:#000000; stroke-width:0; stroke-opacity:1; 
stroke-linecap:round; stroke-linejoin:round;">
</g>
<g style="fill:#000000; fill-opacity:1.0; 
stroke:#000000; stroke-width:0; stroke-opacity:1; 
stroke-linecap:round; stroke-linejoin:round;">
<path style="fill:#000000; fill-opacity:1.0; 
stroke:#000000; stroke-width:0; stroke-opacity:1; 
stroke-linecap:round; stroke-linejoin:round;fill-rule:evenodd;"
d="M 97336.3,12775
98123.7,12775
98123.7,12025
97336.3,12025
Z" /> 
</g>
<g >
</g>
<g style="fill:#000000; fill-opacity:1.0; 
stroke:#000000; stroke-width:0; stroke-opacity:1; 
stroke-linecap:round; stroke-linejoin:round;">
</g>
<g style="fill:#000000; fill-opacity:1.0; 
stroke:#000000; stroke-width:750; stroke-opacity:1; 
stroke-linecap:round; stroke-linejoin:round;">
</g>
<g style="fill:#000000; fill-opacity:0.0; 
stroke:#000000; stroke-width:750; stroke-opacity:1; 
stroke-linecap:round; stroke-linejoin:round;">
<path d="M102748 15200
L102711 15200
" />
<path d="M102748 16200
L102711 16200
" />
</g>
<g style="fill:#000000; fill-opacity:0.0; 
stroke:#000000; stroke-width:0; stroke-opacity:1; 
stroke-linecap:round; stroke-linejoin:round;">
</g>
<g style="fill:#000000; fill-opacity:1.0; 
stroke:#000000; stroke-width:0; stroke-opacity:1; 
stroke-linecap:round; stroke-linejoin:round;">
<path style="fill:#000000; fill-opacity:1.0; 
stroke:#000000; stroke-width:0; stroke-opacity:1; 
stroke-linecap:round; stroke-linejoin:round;fill-rule:evenodd;"
d="M 102336,17575
103124,17575
103124,16825
102336,16825
Z" /> 
</g>
<g >
</g>
<g style="fill:#000000; fill-opacity:1.0; 
stroke:#000000; stroke-width:0; stroke-opacity:1; 
stroke-linecap:round; stroke-linejoin:round;">
</g>
<g style="fill:#000000; fill-opacity:1.0; 
stroke:#000000; stroke-width:750; stroke-opacity:1; 
stroke-linecap:round; stroke-linejoin:round;">
</g>
<g style="fill:#000000; fill-opacity:0.0; 
stroke:#000000; stroke-width:750; stroke-opacity:1; 
stroke-linecap:round; stroke-linejoin:round;">
<path d="M102748 10400
L102711 10400
" />
<path d="M102748 11400
L102711 11400
" />
</g>
<g style="fill:#000000; fill-opacity:0.0; 
stroke:#000000; stroke-width:0; stroke-opacity:1; 
stroke-linecap:round; stroke-linejoin:round;">
</g>
<g style="fill:#000000; fill-opacity:1.0; 
stroke:#000000; stroke-width:0; stroke-opacity:1; 
stroke-linecap:round; stroke-linejoin:round;">
<path style="fill:#000000; fill-opacity:1.0; 
stroke:#000000; stroke-width:0; stroke-opacity:1; 
stroke-linecap:round; stroke-linejoin:round;fill-rule:evenodd;"
d="M 102336,12775
103124,12775
103124,12025
102336,12025
Z" /> 
</g>
<g >
</g>
<g style="fill:#000000; fill-opacity:1.0; 
stroke:#000000; stroke-width:0; stroke-opacity:1; 
stroke-linecap:round; stroke-linejoin:round;">
</g>
<g style="fill:#000000; fill-opacity:1.0; 
stroke:#000000; stroke-width:750; stroke-opacity:1; 
stroke-linecap:round; stroke-linejoin:round;">
</g>
<g style="fill:#000000; fill-opacity:0.0; 
stroke:#000000; stroke-width:750; stroke-opacity:1; 
stroke-linecap:round; stroke-linejoin:round;">
<path d="M106148 10400
L106111 10400
" />
<path d="M106148 11400
L106111 11400
" />
</g>
<g style="fill:#000000; fill-opacity:0.0; 
stroke:#000000; stroke-width:0; stroke-opacity:1; 
stroke-linecap:round; stroke-linejoin:round;">
</g>
<g style="fill:#000000; fill-opacity:1.0; 
stroke:#000000; stroke-width:0; stroke-opacity:1; 
stroke-linecap:round; stroke-linejoin:round;">
<path style="fill:#000000; fill-opacity:1.0; 
stroke:#000000; stroke-width:0; stroke-opacity:1; 
stroke-linecap:round; stroke-linejoin:round;fill-rule:evenodd;"
d="M 105736,12775
106524,12775
106524,12025
105736,12025
Z" /> 
</g>
<g >
</g>
<g >
</g>
<g style="fill:#000000; fill-opacity:1.0; 
stroke:#000000; stroke-width:0; stroke-opacity:1; 
stroke-linecap:round; stroke-linejoin:round;">
</g>
<g style="fill:#000000; fill-opacity:1.0; 
stroke:#000000; stroke-width:472.441; stroke-opacity:1; 
stroke-linecap:round; stroke-linejoin:round;">
</g>
<g style="fill:#000000; fill-opacity:0.0; 
stroke:#000000; stroke-width:472.441; stroke-opacity:1; 
stroke-linecap:round; stroke-linejoin:round;">
<path d="M102730 11400
L97730 11400
" />
<path d="M102730 23365
L102730 23200
" />
<path d="M101730 24365
L102730 23365
" />
<path d="M101730 25400
L101730 24365
" />
<path d="M104516 23200
L102730 23200
" />
<path d="M108698 19018
L104516 23200
" />
<path d="M108698 12547
L108698 19018
" />
<path d="M107551 11400
L108698 12547
" />
<path d="M106130 11400
L107551 11400
" />
</g>
<g style="fill:#000000; fill-opacity:0.0; 
stroke:#000000; stroke-width:314.961; stroke-opacity:1; 
stroke-linecap:round; stroke-linejoin:round;">
<path d="M100730 23200
L100730 25400
" />
<path d="M99730 25400
L99730 23200
" />
<path d="M98730 25400
L98730 23200
" />
<path d="M97730 25400
L97730 23200
" />
<path d="M96730 25400
L96730 23200
" />
<path d="M107315 12400
L107330 12414
" />
<path d="M106130 12400
L107315 12400
" />
<path d="M106130 17200
L107330 17200
" />
<path d="M101544 12400
L101530 12414
" />
<path d="M102730 12400
L101544 12400
" />
<path d="M102715 17214
L102730 17200
" />
<path d="M101530 17214
L102715 17214
" />
<path d="M98915 12400
L98930 12414
" />
<path d="M97730 12400
L98915 12400
" />
<path d="M97744 17214
L97730 17200
" />
<path d="M98930 17214
L97744 17214
" />
<path d="M93130 12400
L94330 12400
" />
<path d="M94315 17214
L94330 17200
" />
<path d="M93130 17214
L94315 17214
" />
<path d="M108068 18757
L108068 14323
" />
<path d="M106074 20751
L108068 18757
" />
<path d="M104129 20751
L106074 20751
" />
<path d="M102021 23108
L102021 22859
" />
<path d="M108068 14323
L107330 13585
" />
<path d="M101930 23200
L102021 23108
" />
<path d="M102021 22859
L104129 20751
" />
<path d="M101730 23200
L101930 23200
" />
<path d="M105501 20200
L107330 18371
" />
<path d="M102730 20200
L105501 20200
" />
<path d="M101730 18585
L101530 18385
" />
<path d="M101730 20200
L101730 18585
" />
<path d="M100480 14635
L101530 13585
" />
<path d="M100730 20200
L100480 19950
" />
<path d="M100480 19950
L100480 14635
" />
<path d="M99980 14635
L98930 13585
" />
<path d="M99730 20200
L99980 19950
" />
<path d="M99980 19950
L99980 14635
" />
<path d="M98730 18585
L98930 18385
" />
<path d="M98730 20200
L98730 18585
" />
<path d="M96361 18385
L93130 18385
" />
<path d="M97730 19754
L96361 18385
" />
<path d="M97730 20200
L97730 19754
" />
<path d="M92391 14309
L93130 13571
" />
<path d="M92391 18771
L92391 14309
" />
<path d="M92680 19059
L92391 18771
" />
<path d="M96035 19059
L92680 19059
" />
<path d="M96730 19754
L96035 19059
" />
<path d="M96730 20200
L96730 19754
" />
</g>
<g style="fill:#000000; fill-opacity:0.0; 
stroke:#000000; stroke-width:472.441; stroke-opacity:1; 
stroke-linecap:round; stroke-linejoin:round;">
<path d="M96863 10400
L97730 10400
" />
<path d="M96863 10400
L96863 10400
" />
<path d="M96863 15551
L96863 10400
" />
<path d="M97512 16200
L96863 15551
" />
<path d="M97730 16200
L97512 16200
" />
<path d="M99730 8400
L99730 8000
" />
<path d="M97730 10400
L99730 8400
" />
<path d="M95196 10400
L94330 10400
" />
<path d="M95196 10400
L95196 10400
" />
<path d="M95196 15551
L95196 10400
" />
<path d="M94699 16047
L95196 15551
" />
<path d="M94482 16047
L94699 16047
" />
<path d="M94330 16200
L94482 16047
" />
<path d="M97596 8000
L95196 10400
" />
<path d="M98730 8000
L97596 8000
" />
<path d="M105263 10400
L106130 10400
" />
<path d="M105263 10400
L105263 10400
" />
<path d="M105263 15551
L105263 10400
" />
<path d="M105977 16047
L105760 16047
" />
<path d="M105760 16047
L105263 15551
" />
<path d="M106130 16200
L105977 16047
" />
<path d="M102863 8000
L101730 8000
" />
<path d="M105263 10400
L102863 8000
" />
<path d="M103596 10400
L103596 10400
" />
<path d="M103596 15551
L103596 10400
" />
<path d="M103099 16047
L103596 15551
" />
<path d="M103596 10400
L102730 10400
" />
<path d="M102882 16047
L103099 16047
" />
<path d="M102730 16200
L102882 16047
" />
<path d="M100730 8400
L100730 8000
" />
<path d="M102730 10400
L100730 8400
" />
</g>
<g >
</g>
<g style="fill:#000000; fill-opacity:0.0; 
stroke:#000000; stroke-width:472.441; stroke-opacity:1; 
stroke-linecap:round; stroke-linejoin:round;">
</g>
<g style="fill:#000000; fill-opacity:1.0; 
stroke:#000000; stroke-width:39.3701; stroke-opacity:1; 
stroke-linecap:round; stroke-linejoin:round;">
<path style="fill:#000000; fill-opacity:1.0; 
stroke:#000000; stroke-width:39.3701; stroke-opacity:1; 
stroke-linecap:round; stroke-linejoin:round;fill-rule:evenodd;"
d="M 91199.6,27080.3
109960,27080.3
109953,25563.1
103256,25563.1
103215,25662.7
103154,25752.2
103077,25828.1
102987,25887.6
102893,25926.5
102809,25890.8
102809,25478.7
103221,25478.7
103256,25563.1
109953,25563.1
109951,25236.9
103256,25236.9
103221,25321.3
102809,25321.3
102809,24909.2
102893,24873.5
102987,24912.4
103077,24971.9
103154,25047.8
103215,25137.3
103256,25236.9
109951,25236.9
109891,12547
109193,12547
109190,12571.2
109190,18993.9
109193,19018.1
109183,19114.6
109155,19207.4
109134,19247.2
109109,19292.9
109048,19367.8
109029,19383.2
104881,23530.9
104866,23549.7
104791,23611.2
104705,23656.9
104613,23685
104516,23694.5
104492,23692.1
103098,23692.1
103080,23715
103061,23730.4
102222,24569.2
102222,25073.6
102253,25120.3
102255,25123.6
102306,25047.8
102383,24971.9
102473,24912.4
102567,24873.5
102651,24909.2
102651,25321.3
102643,25321.3
102643,25478.7
102651,25478.7
102651,25890.8
102567,25926.5
102473,25887.6
102383,25828.1
102306,25752.2
102255,25676.4
102253,25679.7
102189,25776.5
102106,25858.7
102010,25923.3
101902,25967.9
101788,25990.6
101672,25990.6
101558,25967.9
101450,25923.3
101354,25858.7
101271,25776.5
101230,25714.7
101189,25776.5
101106,25858.7
101010,25923.3
100902,25967.9
100788,25990.6
100672,25990.6
100558,25967.9
100450,25923.3
100354,25858.7
100271,25776.5
100230,25714.7
100189,25776.5
100106,25858.7
100010,25923.3
99902.3,25967.9
99788.2,25990.6
99671.8,25990.6
99557.7,25967.9
99450.3,25923.3
99353.5,25858.7
99271.3,25776.5
99230,25714.7
99188.7,25776.5
99106.5,25858.7
99009.7,25923.3
98902.3,25967.9
98788.2,25990.6
98671.8,25990.6
98557.7,25967.9
98450.3,25923.3
98353.5,25858.7
98271.3,25776.5
98230,25714.7
98188.7,25776.5
98106.5,25858.7
98009.7,25923.3
97902.3,25967.9
97788.2,25990.6
97671.8,25990.6
97557.7,25967.9
97450.3,25923.3
97353.5,25858.7
97308.2,25813.4
97302.2,25833.1
97278.5,25877.5
97246.5,25916.5
97207.5,25948.5
97163.1,25972.2
97114.8,25986.8
97064.6,25991.8
96395.4,25991.8
96345.2,25986.8
96296.9,25972.2
96252.5,25948.5
96213.5,25916.5
96181.5,25877.5
96157.8,25833.1
96143.2,25784.8
96138.2,25734.6
96138.2,25065.4
96143.2,25015.2
96157.8,24966.9
96181.5,24922.5
96213.5,24883.5
96252.5,24851.5
96296.9,24827.8
96316.6,24821.8
96316.6,23593.9
96286.6,23563.9
96230,23479.2
96173.4,23563.9
96093.9,23643.4
96000.4,23705.9
95896.5,23748.9
95786.2,23770.9
95673.8,23770.9
95563.5,23748.9
95459.6,23705.9
95366.1,23643.4
95286.6,23563.9
95224.1,23470.4
95181.1,23366.5
95159.1,23256.2
95159.1,23143.8
95181.1,23033.5
95224.1,22929.6
95286.6,22836.1
95366.1,22756.6
95459.6,22694.1
95563.5,22651.1
95673.8,22629.1
95786.2,22629.1
95896.5,22651.1
96000.4,22694.1
96093.9,22756.6
96173.4,22836.1
96230,22920.8
96286.6,22836.1
96366.1,22756.6
96459.6,22694.1
96563.5,22651.1
96673.8,22629.1
96786.2,22629.1
96896.5,22651.1
97000.4,22694.1
97093.9,22756.6
97173.4,22836.1
97230,22920.8
97286.6,22836.1
97366.1,22756.6
97459.6,22694.1
97563.5,22651.1
97673.8,22629.1
97786.2,22629.1
97896.5,22651.1
98000.4,22694.1
98093.9,22756.6
98173.4,22836.1
98230,22920.8
98286.6,22836.1
98366.1,22756.6
98459.6,22694.1
98563.5,22651.1
98673.8,22629.1
98786.2,22629.1
98896.5,22651.1
99000.4,22694.1
99093.9,22756.6
99173.4,22836.1
99230,22920.8
99286.6,22836.1
99366.1,22756.6
99459.6,22694.1
99563.5,22651.1
99673.8,22629.1
99786.2,22629.1
99896.5,22651.1
100000,22694.1
100094,22756.6
100173,22836.1
100230,22920.8
100287,22836.1
100366,22756.6
100460,22694.1
100563,22651.1
100674,22629.1
100786,22629.1
100897,22651.1
101000,22694.1
101094,22756.6
101173,22836.1
101230,22920.8
101287,22836.1
101366,22756.6
101460,22694.1
101563,22651.1
101674,22629.1
101676,22629.1
101676,22629.1
101683,22620.9
101715,22581.9
101715,22581.9
101728,22566.1
101743,22553.2
103683,20613.4
103283,20613.4
103259,20657.8
103227,20696.8
103188,20728.8
103143,20752.5
103095,20767.2
103045,20772.1
102415,20772.1
102365,20767.2
102317,20752.5
102272,20728.8
102233,20696.8
102201,20657.8
102177,20613.4
102165,20572.3
102094,20643.4
102000,20705.9
101897,20748.9
101786,20770.9
101674,20770.9
101563,20748.9
101460,20705.9
101366,20643.4
101287,20563.9
101230,20479.2
101173,20563.9
101094,20643.4
101000,20705.9
100897,20748.9
100786,20770.9
100674,20770.9
100563,20748.9
100460,20705.9
100366,20643.4
100287,20563.9
100230,20479.2
100173,20563.9
100094,20643.4
100000,20705.9
99896.5,20748.9
99786.2,20770.9
99673.8,20770.9
99563.5,20748.9
99459.6,20705.9
99366.1,20643.4
99286.6,20563.9
99230,20479.2
99173.4,20563.9
99093.9,20643.4
99000.4,20705.9
98896.5,20748.9
98786.2,20770.9
98673.8,20770.9
98563.5,20748.9
98459.6,20705.9
98366.1,20643.4
98286.6,20563.9
98230,20479.2
98173.4,20563.9
98093.9,20643.4
98000.4,20705.9
97896.5,20748.9
97786.2,20770.9
97673.8,20770.9
97563.5,20748.9
97459.6,20705.9
97366.1,20643.4
97286.6,20563.9
97230,20479.2
97173.4,20563.9
97093.9,20643.4
97000.4,20705.9
96896.5,20748.9
96786.2,20770.9
96673.8,20770.9
96563.5,20748.9
96459.6,20705.9
96366.1,20643.4
96286.6,20563.9
96224.1,20470.4
96207.1,20429.5
96195.9,20455.8
96137,20541.8
96062.5,20614.6
95975.3,20671.5
95890,20706.8
95808.7,20670.8
95808.7,20278.7
95651.3,20278.7
95651.3,20670.8
95570,20706.8
95484.7,20671.5
95397.5,20614.6
95323,20541.8
95264.1,20455.8
95223.2,20360
95258.5,20278.7
95651.3,20278.7
95808.7,20278.7
95816.6,20278.7
95816.6,20121.3
95808.7,20121.3
95808.7,19729.2
95651.3,19729.2
95651.3,20121.3
95258.5,20121.3
95223.2,20040
95264.1,19944.2
95323,19858.2
95397.5,19785.4
95484.7,19728.5
95570,19693.2
95651.3,19729.2
95808.7,19729.2
95890,19693.2
95975.3,19728.5
96062.5,19785.4
96137,19858.2
96195.9,19944.2
96207.1,19970.5
96224.1,19929.6
96262.7,19871.9
95864,19473.2
92700.4,19473.2
92680.1,19475.2
92659.8,19473.2
92659.8,19473.2
92599.1,19467.3
92521.1,19443.6
92449.3,19405.2
92386.4,19353.6
92373.4,19337.8
92113.9,19078.2
92098.1,19065.3
92085.1,19049.5
92085.1,19049.5
92046.4,19002.3
92008,18930.5
91997.6,18896.2
91984.4,18852.6
91978.4,18791.9
91978.4,18791.9
91976.4,18771.6
91978.4,18751.3
91978.4,14329.8
91976.4,14309.5
91978.4,14289.1
91978.4,14289.1
91984.4,14228.4
92008,14150.5
92046.4,14078.7
92098.1,14015.7
92113.9,14002.8
92528.4,13588.3
92528.4,13389.2
92535.2,13319.8
92555.4,13253.1
92588.3,13191.6
92632.5,13137.7
92686.4,13093.5
92747.9,13060.7
92814.6,13040.4
92883.9,13033.6
93376.1,13033.6
93445.4,13040.4
93512.1,13060.7
93573.6,13093.5
93627.5,13137.7
93671.7,13191.6
93704.6,13253.1
93724.8,13319.8
93731.6,13389.2
93731.6,13753.3
93724.8,13822.7
93704.6,13889.4
93671.7,13950.9
93627.5,14004.8
93573.6,14049
93512.1,14081.8
93445.4,14102.1
93376.1,14108.9
93177,14108.9
92805.2,14480.7
92805.2,16686.4
92814.6,16683.5
92883.9,16676.7
93376.1,16676.7
93445.4,16683.5
93512.1,16703.8
93573.6,16736.6
93627.5,16780.9
93644,16801
93681.5,16801
93684.1,16774.8
93698.7,16726.6
93722.5,16682.1
93754.5,16643.2
93793.4,16611.2
93820.7,16596.6
93784.2,16552.2
93725.6,16442.6
93689.5,16323.7
93677.3,16200
93689.5,16076.3
93725.6,15957.4
93784.2,15847.8
93863,15751.7
93958.8,15673.1
93953.1,15669.6
93868.4,15590.7
93800.7,15496.8
93752.6,15391.4
93744.6,15369.5
93779.7,15278.7
94251.3,15278.7
94251.3,15286.6
94408.7,15286.6
94408.7,15278.7
94416.6,15278.7
94416.6,15121.3
94408.7,15121.3
94408.7,14666.6
94251.3,14666.6
94251.3,15121.3
93779.7,15121.3
93744.6,15030.5
93752.6,15008.5
93800.7,14903.2
93868.4,14809.3
93953.1,14730.4
94051.6,14669.6
94160.1,14629.1
94251.3,14666.6
94408.7,14666.6
94499.9,14629.1
94608.4,14669.6
94704,14728.7
94704,13032.1
93936.3,13032.1
93886.1,13027.2
93837.9,13012.6
93793.4,12988.8
93754.5,12956.8
93722.5,12917.9
93698.7,12873.4
93684.1,12825.2
93682.9,12813.4
93644,12813.4
93627.5,12833.5
93573.6,12877.7
93512.1,12910.6
93445.4,12930.8
93376.1,12937.7
92883.9,12937.7
92814.6,12930.8
92747.9,12910.6
92686.4,12877.7
92632.5,12833.5
92588.3,12779.6
92555.4,12718.2
92535.2,12651.5
92528.4,12582.1
92528.4,12217.9
92535.2,12148.5
92555.4,12081.8
92588.3,12020.4
92632.5,11966.5
92686.4,11922.3
92747.9,11889.4
92814.6,11869.2
92883.9,11862.3
93376.1,11862.3
93445.4,11869.2
93512.1,11889.4
93573.6,11922.3
93627.5,11966.5
93644,11986.6
93682.9,11986.6
93684.1,11974.8
93698.7,11926.6
93722.5,11882.1
93754.5,11843.2
93793.4,11811.2
93820.7,11796.6
93784.2,11752.2
93725.6,11642.6
93689.5,11523.7
93677.3,11400
93689.5,11276.3
93725.6,11157.4
93784.2,11047.8
93863,10951.7
93926,10900
93863,10848.3
93784.2,10752.2
93725.6,10642.6
93689.5,10523.7
93677.3,10400
93689.5,10276.3
93725.6,10157.4
93784.2,10047.8
93863,9951.72
93959.1,9872.88
94068.7,9814.3
94187.6,9778.22
94280.3,9769.09
94379.7,9769.09
94472.4,9778.22
94591.3,9814.3
94700.9,9872.88
94743.5,9907.87
94992.3,9907.87
97231.1,7669.11
97246.5,7650.33
97321.4,7588.83
97406.9,7543.14
97499.7,7514.99
97572,7507.87
97572,7507.87
97596.1,7505.49
97620.3,7507.87
98193.5,7507.87
98213.5,7483.53
98252.5,7451.55
98296.9,7427.78
98345.2,7413.15
98395.4,7408.21
99064.6,7408.21
99114.8,7413.15
99163.1,7427.78
99207.5,7451.55
99246.5,7483.53
99278.5,7522.49
99302.2,7566.95
99308.2,7586.64
99353.5,7541.29
99450.3,7476.66
99557.7,7432.14
99671.8,7409.45
99788.2,7409.45
99902.3,7432.14
100010,7476.66
100106,7541.29
100189,7623.55
100230,7685.34
100271,7623.55
100354,7541.29
100450,7476.66
100558,7432.14
100672,7409.45
100788,7409.45
100902,7432.14
101010,7476.66
101106,7541.29
101189,7623.55
101230,7685.34
101271,7623.55
101354,7541.29
101450,7476.66
101558,7432.14
101672,7409.45
101788,7409.45
101902,7432.14
102010,7476.66
102056,7507.87
102840,7507.87
102864,7505.49
102888,7507.87
102888,7507.87
102960,7514.99
103053,7543.14
103139,7588.83
103214,7650.33
103229,7669.11
105468,9907.87
105716,9907.87
105759,9872.88
105869,9814.3
105988,9778.22
106080,9769.09
106180,9769.09
106272,9778.22
106391,9814.3
106501,9872.88
106597,9951.72
106676,10047.8
106734,10157.4
106770,10276.3
106783,10400
106770,10523.7
106734,10642.6
106676,10752.2
106597,10848.3
106534,10900
106544,10907.9
107527,10907.9
107551,10905.5
107575,10907.9
107575,10907.9
107638,10914
107648,10915
107669,10921.5
107740,10943.1
107826,10988.8
107901,11050.3
107916,11069.1
109029,12181.9
109048,12197.3
109109,12272.3
109155,12357.8
109183,12450.5
109190,12522.8
109190,12522.8
109193,12547
109891,12547
109860,6119.69
91099.8,6119.69
Z" /> 
<path style="fill:#000000; fill-opacity:1.0; 
stroke:#000000; stroke-width:39.3701; stroke-opacity:1; 
stroke-linecap:round; stroke-linejoin:round;fill-rule:evenodd;"
d="M 102010,8523.34
101902,8567.86
101788,8590.55
101672,8590.55
101603,8576.82
102797,9770.77
102872,9778.22
102991,9814.3
103101,9872.88
103144,9907.87
103572,9907.87
103596,9905.49
103620,9907.87
103620,9907.87
103693,9914.99
103785,9943.14
103871,9988.83
103946,10050.3
103946,10050.3
103946,10050.3
104007,10125.3
104024,10157.4
104053,10210.8
104081,10303.5
104091,10400
104088,10424.2
104088,15526.9
104091,15551
104088,15575.2
104088,15575.2
104081,15647.5
104053,15740.3
104007,15825.8
103946,15900.7
103927,15916.1
103465,16378.3
103449,16397.1
103374,16458.6
103306,16495
103276,16552.2
103239,16596.6
103267,16611.2
103306,16643.2
103338,16682.1
103361,16726.6
103376,16774.8
103381,16825
103381,17575
103376,17625.2
103361,17673.4
103338,17717.9
103306,17756.8
103267,17788.8
103222,17812.6
103174,17827.2
103124,17832.1
102336,17832.1
102286,17827.2
102238,17812.6
102193,17788.8
102154,17756.8
102122,17717.9
102099,17673.4
102085,17627.8
102044,17627.8
102027,17647.9
101974,17692.1
101912,17725
101845,17745.2
101776,17752
101284,17752
101215,17745.2
101148,17725
101086,17692.1
101033,17647.9
100988,17594
100955,17532.5
100935,17465.8
100928,17396.5
100928,17032.3
100935,16962.9
100955,16896.2
100988,16834.7
101033,16780.9
101086,16736.6
101148,16703.8
101215,16683.5
101284,16676.7
101776,16676.7
101845,16683.5
101912,16703.8
101974,16736.6
102027,16780.9
102044,16801
102082,16801
102084,16774.8
102099,16726.6
102122,16682.1
102154,16643.2
102193,16611.2
102221,16596.6
102184,16552.2
102126,16442.6
102090,16323.7
102077,16200
102090,16076.3
102126,15957.4
102184,15847.8
102263,15751.7
102359,15673.1
102353,15669.6
102268,15590.7
102201,15496.8
102153,15391.4
102145,15369.5
102180,15278.7
102651,15278.7
102651,15286.6
102809,15286.6
102809,15278.7
102817,15278.7
102817,15121.3
102809,15121.3
102809,14666.6
102651,14666.6
102651,15121.3
102180,15121.3
102145,15030.5
102153,15008.5
102201,14903.2
102268,14809.3
102353,14730.4
102452,14669.6
102560,14629.1
102651,14666.6
102809,14666.6
102900,14629.1
103008,14669.6
103104,14728.7
103104,13032.1
102336,13032.1
102286,13027.2
102238,13012.6
102193,12988.8
102154,12956.8
102122,12917.9
102099,12873.4
102084,12825.2
102083,12813.4
102056,12813.4
102027,12847.9
101974,12892.1
101912,12925
101845,12945.2
101776,12952
101284,12952
101215,12945.2
101148,12925
101086,12892.1
101033,12847.9
100988,12794
100955,12732.5
100935,12665.8
100928,12596.5
100928,12232.3
100935,12162.9
100955,12096.2
100988,12034.7
101033,11980.9
101086,11936.6
101148,11903.8
101186,11892.1
99273.7,11892.1
99312.1,11903.8
99373.6,11936.6
99427.5,11980.9
99471.7,12034.7
99504.6,12096.2
99524.8,12162.9
99531.6,12232.3
99531.6,12596.5
99524.8,12665.8
99504.6,12732.5
99471.7,12794
99427.5,12847.9
99373.6,12892.1
99312.1,12925
99245.4,12945.2
99176.1,12952
98683.9,12952
98614.6,12945.2
98547.9,12925
98486.4,12892.1
98432.5,12847.9
98404.2,12813.4
98377.1,12813.4
98375.9,12825.2
98361.3,12873.4
98337.5,12917.9
98305.5,12956.8
98266.6,12988.8
98222.1,13012.6
98173.9,13027.2
98123.7,13032.1
97356,13032.1
97356,14728.7
97451.6,14669.6
97560.1,14629.1
97651.3,14666.6
97651.3,15121.3
97643.4,15121.3
97643.4,15278.7
97651.3,15278.7
97651.3,15286.6
97808.7,15286.6
97808.7,15278.7
98280.3,15278.7
98315.4,15369.5
98307.4,15391.4
98259.3,15496.8
98191.6,15590.7
98106.9,15669.6
98101.2,15673.1
98197,15751.7
98275.8,15847.8
98334.4,15957.4
98370.5,16076.3
98382.7,16200
98370.5,16323.7
98334.4,16442.6
98275.8,16552.2
98239.3,16596.6
98266.6,16611.2
98305.5,16643.2
98337.5,16682.1
98361.3,16726.6
98375.9,16774.8
98378.5,16801
98416,16801
98432.5,16780.9
98486.4,16736.6
98547.9,16703.8
98614.6,16683.5
98683.9,16676.7
99176.1,16676.7
99245.4,16683.5
99312.1,16703.8
99373.6,16736.6
99427.5,16780.9
99471.7,16834.7
99504.6,16896.2
99524.8,16962.9
99531.6,17032.3
99531.6,17396.5
99524.8,17465.8
99504.6,17532.5
99471.7,17594
99427.5,17647.9
99373.6,17692.1
99312.1,17725
99245.4,17745.2
99176.1,17752
98683.9,17752
98614.6,17745.2
98547.9,17725
98486.4,17692.1
98432.5,17647.9
98416,17627.8
98375.1,17627.8
98361.3,17673.4
98337.5,17717.9
98305.5,17756.8
98266.6,17788.8
98222.1,17812.6
98173.9,17827.2
98123.7,17832.1
97336.3,17832.1
97286.1,17827.2
97237.9,17812.6
97193.4,17788.8
97154.5,17756.8
97122.5,17717.9
97098.7,17673.4
97084.1,17625.2
97079.2,17575
97079.2,16825
97084.1,16774.8
97098.7,16726.6
97122.5,16682.1
97154.5,16643.2
97193.4,16611.2
97220.5,16596.7
97163.2,16549.7
97147.7,16530.9
96533,15916.1
96514.2,15900.7
96452.7,15825.8
96407,15740.3
96378.8,15647.5
96371.7,15575.2
96371.7,15575.2
96369.3,15551
96371.7,15526.9
96371.7,10424.2
96369.3,10400
96371.7,10375.8
96371.7,10375.8
96378.8,10303.5
96407,10210.8
96452.7,10125.3
96514.2,10050.3
96514.2,10050.3
96589.1,9988.83
96674.6,9943.14
96767.4,9914.99
96839.7,9907.87
96839.7,9907.87
96863.9,9905.49
96888,9907.87
97316.5,9907.87
97359.1,9872.88
97468.7,9814.3
97587.6,9778.22
97663.3,9770.77
98842.2,8591.79
98395.4,8591.79
98345.2,8586.85
98296.9,8572.22
98252.5,8548.45
98213.5,8516.47
98193.5,8492.13
97800,8492.13
95688.3,10603.8
95688.3,15526.9
95690.7,15551
95688.3,15575.2
95688.3,15575.2
95681.2,15647.5
95653,15740.3
95607.3,15825.8
95545.8,15900.7
95527,15916.1
95064.8,16378.3
95049.4,16397.1
94974.5,16458.6
94906.4,16495
94875.8,16552.2
94839.3,16596.6
94866.6,16611.2
94905.5,16643.2
94937.5,16682.1
94961.3,16726.6
94975.9,16774.8
94980.8,16825
94980.8,17575
94975.9,17625.2
94961.3,17673.4
94937.5,17717.9
94905.5,17756.8
94866.6,17788.8
94822.1,17812.6
94773.9,17827.2
94723.7,17832.1
93936.3,17832.1
93886.1,17827.2
93837.9,17812.6
93793.4,17788.8
93754.5,17756.8
93722.5,17717.9
93698.7,17673.4
93684.9,17627.8
93644,17627.8
93627.5,17647.9
93573.6,17692.1
93512.1,17725
93445.4,17745.2
93376.1,17752
92883.9,17752
92814.6,17745.2
92805.2,17742.3
92805.2,17857.7
92814.6,17854.8
92883.9,17848
93376.1,17848
93445.4,17854.8
93512.1,17875
93573.6,17907.9
93627.5,17952.1
93644,17972.2
96340.7,17972.2
96361.1,17970.2
96381.4,17972.2
96381.4,17972.2
96442.1,17978.2
96520,18001.9
96591.8,18040.2
96654.8,18091.9
96667.7,18107.7
98007.9,19447.9
98023.7,19460.9
98036.7,19476.6
98036.7,19476.6
98075.4,19523.8
98113.8,19595.6
98128.2,19643.3
98137.4,19673.5
98143.4,19734.3
98143.4,19734.3
98145.4,19754.6
98143.4,19774.9
98143.4,19806.1
98173.4,19836.1
98230,19920.8
98286.6,19836.1
98316.6,19806.1
98316.6,18605.9
98314.6,18585.6
98316.6,18565.3
98316.6,18565.3
98322.6,18504.6
98328.4,18485.6
98328.4,18203.5
98335.2,18134.2
98355.4,18067.5
98388.3,18006
98432.5,17952.1
98486.4,17907.9
98547.9,17875
98614.6,17854.8
98683.9,17848
99176.1,17848
99245.4,17854.8
99312.1,17875
99373.6,17907.9
99427.5,17952.1
99471.7,18006
99504.6,18067.5
99524.8,18134.2
99531.6,18203.5
99531.6,18567.7
99524.8,18637.1
99504.6,18703.8
99471.7,18765.3
99427.5,18819.1
99373.6,18863.4
99312.1,18896.2
99245.4,18916.5
99176.1,18923.3
99143.4,18923.3
99143.4,19806.1
99173.4,19836.1
99230,19920.8
99286.6,19836.1
99366.1,19756.6
99459.6,19694.1
99563.5,19651.1
99566.6,19650.4
99566.6,15030.5
98315.4,15030.5
98280.3,15121.3
97808.7,15121.3
97808.7,14666.6
97899.9,14629.1
98008.4,14669.6
98106.9,14730.4
98191.6,14809.3
98259.3,14903.2
98307.4,15008.5
98315.4,15030.5
99566.6,15030.5
99566.6,14806.9
98883,14123.3
98683.9,14123.3
98614.6,14116.5
98547.9,14096.2
98486.4,14063.4
98432.5,14019.1
98388.3,13965.3
98355.4,13903.8
98335.2,13837.1
98328.4,13767.7
98328.4,13403.5
98335.2,13334.2
98355.4,13267.5
98388.3,13206
98432.5,13152.1
98486.4,13107.9
98547.9,13075
98614.6,13054.8
98683.9,13048
99176.1,13048
99245.4,13054.8
99312.1,13075
99373.6,13107.9
99427.5,13152.1
99471.7,13206
99504.6,13267.5
99524.8,13334.2
99531.6,13403.5
99531.6,13602.6
100230,14301
100928,13602.6
100928,13403.5
100935,13334.2
100955,13267.5
100988,13206
101033,13152.1
101086,13107.9
101148,13075
101215,13054.8
101284,13048
101776,13048
101845,13054.8
101912,13075
101974,13107.9
102027,13152.1
102072,13206
102105,13267.5
102125,13334.2
102132,13403.5
102132,13767.7
102125,13837.1
102105,13903.8
102072,13965.3
102027,14019.1
101974,14063.4
101912,14096.2
101845,14116.5
101776,14123.3
101577,14123.3
100893,14806.9
100893,19650.4
100897,19651.1
101000,19694.1
101094,19756.6
101173,19836.1
101230,19920.8
101287,19836.1
101317,19806.1
101317,18923.3
101284,18923.3
101215,18916.5
101148,18896.2
101086,18863.4
101033,18819.1
100988,18765.3
100955,18703.8
100935,18637.1
100928,18567.7
100928,18203.5
100935,18134.2
100955,18067.5
100988,18006
101033,17952.1
101086,17907.9
101148,17875
101215,17854.8
101284,17848
101776,17848
101845,17854.8
101912,17875
101974,17907.9
102027,17952.1
102072,18006
102105,18067.5
102125,18134.2
102132,18203.5
102132,18485.6
102137,18504.6
102137,18504.6
102145,18585.6
102143,18605.9
102143,19806.1
102165,19827.7
102177,19786.6
102201,19742.2
102233,19703.2
102272,19671.2
102317,19647.5
102365,19632.8
102415,19627.9
103045,19627.9
103095,19632.8
103143,19647.5
103188,19671.2
103227,19703.2
103259,19742.2
103283,19786.6
105330,19786.6
106728,18388.3
106728,18189.2
106735,18119.8
106755,18053.1
106788,17991.6
106833,17937.7
106886,17893.5
106948,17860.7
107015,17840.4
107084,17833.6
107576,17833.6
107645,17840.4
107655,17843.3
107655,17728
107645,17730.8
107576,17737.7
107084,17737.7
107015,17730.8
106948,17710.6
106886,17677.7
106833,17633.5
106816,17613.4
106777,17613.4
106776,17625.2
106761,17673.4
106738,17717.9
106706,17756.8
106667,17788.8
106622,17812.6
106574,17827.2
106524,17832.1
105736,17832.1
105686,17827.2
105638,17812.6
105593,17788.8
105554,17756.8
105522,17717.9
105499,17673.4
105484,17625.2
105479,17575
105479,16825
105484,16774.8
105499,16726.6
105522,16682.1
105554,16643.2
105593,16611.2
105621,16596.6
105584,16552.2
105554,16495
105486,16458.6
105411,16397.1
105395,16378.3
104933,15916.1
104914,15900.7
104853,15825.8
104807,15740.3
104779,15647.5
104772,15575.2
104772,15575.2
104769,15551
104772,15526.8
104772,10603.8
102660,8492.13
102056,8492.13
Z" /> 
<path style="fill:#000000; fill-opacity:1.0; 
stroke:#000000; stroke-width:39.3701; stroke-opacity:1; 
stroke-linecap:round; stroke-linejoin:round;fill-rule:evenodd;"
d="M 107932,12596.5
107925,12665.8
107905,12732.5
107872,12794
107827,12847.9
107774,12892.1
107712,12925
107645,12945.2
107576,12952
107084,12952
107015,12945.2
106948,12925
106886,12892.1
106833,12847.9
106804,12813.4
106777,12813.4
106776,12825.2
106761,12873.4
106738,12917.9
106706,12956.8
106667,12988.8
106622,13012.6
106574,13027.2
106524,13032.1
105756,13032.1
105756,14728.7
105852,14669.6
105960,14629.1
106051,14666.6
106051,15121.3
106043,15121.3
106043,15278.7
106051,15278.7
106051,15286.6
106209,15286.6
106209,15278.7
106680,15278.7
106715,15369.5
106707,15391.4
106659,15496.8
106592,15590.7
106507,15669.6
106501,15673.1
106597,15751.7
106676,15847.8
106734,15957.4
106770,16076.3
106783,16200
106770,16323.7
106734,16442.6
106676,16552.2
106639,16596.6
106667,16611.2
106706,16643.2
106738,16682.1
106761,16726.6
106776,16774.8
106777,16786.6
106816,16786.6
106833,16766.5
106886,16722.3
106948,16689.4
107015,16669.2
107084,16662.3
107576,16662.3
107645,16669.2
107655,16672
107655,15030.5
106715,15030.5
106680,15121.3
106209,15121.3
106209,14666.6
106300,14629.1
106408,14669.6
106507,14730.4
106592,14809.3
106659,14903.2
106707,15008.5
106715,15030.5
107655,15030.5
107655,14495.1
107283,14123.3
107084,14123.3
107015,14116.5
106948,14096.2
106886,14063.4
106833,14019.1
106788,13965.3
106755,13903.8
106735,13837.1
106728,13767.7
106728,13403.5
106735,13334.2
106755,13267.5
106788,13206
106833,13152.1
106886,13107.9
106948,13075
107015,13054.8
107084,13048
107576,13048
107645,13054.8
107712,13075
107774,13107.9
107827,13152.1
107872,13206
107905,13267.5
107925,13334.2
107932,13403.5
107932,13602.6
108206,13877
108206,12750.9
107932,12476.5
Z" /> 
</g>
</g> 
</svg>
